  0
SECTION
  2
HEADER
  9
$ACADVER
  1
AC1032
  9
$ACADMAINTVER
 90
       55
  9
$DWGCODEPAGE
  3
ANSI_1252
  9
$LASTSAVEDBY
  1
cipulot
  9
$REQUIREDVERSIONS
160
                 0
  9
$INSBASE
 10
0.0
 20
0.0
 30
0.0
  9
$EXTMIN
 10
1.000000000000000E+20
 20
1.000000000000000E+20
 30
1.000000000000000E+20
  9
$EXTMAX
 10
-1.000000000000000E+20
 20
-1.000000000000000E+20
 30
-1.000000000000000E+20
  9
$LIMMIN
 10
0.0
 20
0.0
  9
$LIMMAX
 10
12.0
 20
9.0
  9
$ORTHOMODE
 70
     0
  9
$REGENMODE
 70
     1
  9
$FILLMODE
 70
     1
  9
$QTEXTMODE
 70
     0
  9
$MIRRTEXT
 70
     1
  9
$LTSCALE
 40
1.0
  9
$ATTMODE
 70
     1
  9
$TEXTSIZE
 40
0.2
  9
$TRACEWID
 40
0.05
  9
$TEXTSTYLE
  7
STANDARD
  9
$CLAYER
  8
1
  9
$CELTYPE
  6
BYBLOCK
  9
$CECOLOR
 62
   256
  9
$CELTSCALE
 40
1.0
  9
$DISPSILH
 70
     0
  9
$DIMSCALE
 40
1.0
  9
$DIMASZ
 40
0.18
  9
$DIMEXO
 40
0.0625
  9
$DIMDLI
 40
0.38
  9
$DIMRND
 40
0.0
  9
$DIMDLE
 40
0.0
  9
$DIMEXE
 40
0.18
  9
$DIMTP
 40
0.0
  9
$DIMTM
 40
0.0
  9
$DIMTXT
 40
0.18
  9
$DIMCEN
 40
0.09
  9
$DIMTSZ
 40
0.0
  9
$DIMTOL
 70
     0
  9
$DIMLIM
 70
     0
  9
$DIMTIH
 70
     1
  9
$DIMTOH
 70
     1
  9
$DIMSE1
 70
     0
  9
$DIMSE2
 70
     0
  9
$DIMTAD
 70
     0
  9
$DIMZIN
 70
     0
  9
$DIMBLK
  1

  9
$DIMASO
 70
     1
  9
$DIMSHO
 70
     1
  9
$DIMPOST
  1

  9
$DIMAPOST
  1

  9
$DIMALT
 70
     0
  9
$DIMALTD
 70
     2
  9
$DIMALTF
 40
25.4
  9
$DIMLFAC
 40
1.0
  9
$DIMTOFL
 70
     0
  9
$DIMTVP
 40
0.0
  9
$DIMTIX
 70
     0
  9
$DIMSOXD
 70
     0
  9
$DIMSAH
 70
     0
  9
$DIMBLK1
  1

  9
$DIMBLK2
  1

  9
$DIMSTYLE
  2
Standard
  9
$DIMCLRD
 70
     0
  9
$DIMCLRE
 70
     0
  9
$DIMCLRT
 70
     0
  9
$DIMTFAC
 40
1.0
  9
$DIMGAP
 40
0.09
  9
$DIMJUST
 70
     0
  9
$DIMSD1
 70
     0
  9
$DIMSD2
 70
     0
  9
$DIMTOLJ
 70
     1
  9
$DIMTZIN
 70
     0
  9
$DIMALTZ
 70
     0
  9
$DIMALTTZ
 70
     0
  9
$DIMUPT
 70
     0
  9
$DIMDEC
 70
     4
  9
$DIMTDEC
 70
     4
  9
$DIMALTU
 70
     2
  9
$DIMALTTD
 70
     2
  9
$DIMTXSTY
  7
STANDARD
  9
$DIMAUNIT
 70
     0
  9
$DIMADEC
 70
     0
  9
$DIMALTRND
 40
0.0
  9
$DIMAZIN
 70
     0
  9
$DIMDSEP
 70
    46
  9
$DIMATFIT
 70
     3
  9
$DIMFRAC
 70
     0
  9
$DIMLDRBLK
  1

  9
$DIMLUNIT
 70
     2
  9
$DIMLWD
 70
    -2
  9
$DIMLWE
 70
    -2
  9
$DIMTMOVE
 70
     2
  9
$DIMFXL
 40
1.0
  9
$DIMFXLON
 70
     0
  9
$DIMJOGANG
 40
0.7853981633974483
  9
$DIMTFILL
 70
     0
  9
$DIMTFILLCLR
 70
     0
  9
$DIMARCSYM
 70
     0
  9
$DIMLTYPE
  6

  9
$DIMLTEX1
  6

  9
$DIMLTEX2
  6

  9
$DIMTXTDIRECTION
 70
     0
  9
$LUNITS
 70
     2
  9
$LUPREC
 70
     4
  9
$SKETCHINC
 40
0.1
  9
$FILLETRAD
 40
0.0
  9
$AUNITS
 70
     0
  9
$AUPREC
 70
     0
  9
$MENU
  1
.
  9
$ELEVATION
 40
0.0
  9
$PELEVATION
 40
0.0
  9
$THICKNESS
 40
0.0
  9
$LIMCHECK
 70
     0
  9
$CHAMFERA
 40
0.0
  9
$CHAMFERB
 40
0.0
  9
$CHAMFERC
 40
0.0
  9
$CHAMFERD
 40
0.0
  9
$SKPOLY
 70
     0
  9
$TDCREATE
 40
0.0
  9
$TDUCREATE
 40
0.0
  9
$TDUPDATE
 40
2460649.937283773
  9
$TDUUPDATE
 40
2460649.895617107
  9
$TDINDWG
 40
0.0
  9
$TDUSRTIMER
 40
0.0
  9
$USRTIMER
 70
     1
  9
$ANGBASE
 50
0.0
  9
$ANGDIR
 70
     0
  9
$PDMODE
 70
     0
  9
$PDSIZE
 40
0.0
  9
$PLINEWID
 40
0.0
  9
$SPLFRAME
 70
     0
  9
$SPLINETYPE
 70
     6
  9
$SPLINESEGS
 70
     8
  9
$HANDSEED
  5
1008F
  9
$SURFTAB1
 70
     6
  9
$SURFTAB2
 70
     6
  9
$SURFTYPE
 70
     6
  9
$SURFU
 70
     6
  9
$SURFV
 70
     6
  9
$UCSBASE
  2

  9
$UCSNAME
  2

  9
$UCSORG
 10
0.0
 20
0.0
 30
0.0
  9
$UCSXDIR
 10
1.0
 20
0.0
 30
0.0
  9
$UCSYDIR
 10
0.0
 20
1.0
 30
0.0
  9
$UCSORTHOREF
  2

  9
$UCSORTHOVIEW
 70
     0
  9
$UCSORGTOP
 10
0.0
 20
0.0
 30
0.0
  9
$UCSORGBOTTOM
 10
0.0
 20
0.0
 30
0.0
  9
$UCSORGLEFT
 10
0.0
 20
0.0
 30
0.0
  9
$UCSORGRIGHT
 10
0.0
 20
0.0
 30
0.0
  9
$UCSORGFRONT
 10
0.0
 20
0.0
 30
0.0
  9
$UCSORGBACK
 10
0.0
 20
0.0
 30
0.0
  9
$PUCSBASE
  2

  9
$PUCSNAME
  2

  9
$PUCSORG
 10
0.0
 20
0.0
 30
0.0
  9
$PUCSXDIR
 10
1.0
 20
0.0
 30
0.0
  9
$PUCSYDIR
 10
0.0
 20
1.0
 30
0.0
  9
$PUCSORTHOREF
  2

  9
$PUCSORTHOVIEW
 70
     0
  9
$PUCSORGTOP
 10
0.0
 20
0.0
 30
0.0
  9
$PUCSORGBOTTOM
 10
0.0
 20
0.0
 30
0.0
  9
$PUCSORGLEFT
 10
0.0
 20
0.0
 30
0.0
  9
$PUCSORGRIGHT
 10
0.0
 20
0.0
 30
0.0
  9
$PUCSORGFRONT
 10
0.0
 20
0.0
 30
0.0
  9
$PUCSORGBACK
 10
0.0
 20
0.0
 30
0.0
  9
$USERI1
 70
     0
  9
$USERI2
 70
     0
  9
$USERI3
 70
     0
  9
$USERI4
 70
     0
  9
$USERI5
 70
     0
  9
$USERR1
 40
0.0
  9
$USERR2
 40
0.0
  9
$USERR3
 40
0.0
  9
$USERR4
 40
0.0
  9
$USERR5
 40
0.0
  9
$WORLDVIEW
 70
     1
  9
$SHADEDGE
 70
     3
  9
$SHADEDIF
 70
    70
  9
$TILEMODE
 70
     1
  9
$MAXACTVP
 70
    64
  9
$PINSBASE
 10
0.0
 20
0.0
 30
0.0
  9
$PLIMCHECK
 70
     0
  9
$PEXTMIN
 10
1.000000000000000E+20
 20
1.000000000000000E+20
 30
1.000000000000000E+20
  9
$PEXTMAX
 10
-1.000000000000000E+20
 20
-1.000000000000000E+20
 30
-1.000000000000000E+20
  9
$PLIMMIN
 10
0.0
 20
0.0
  9
$PLIMMAX
 10
12.0
 20
9.0
  9
$UNITMODE
 70
     0
  9
$VISRETAIN
 70
     1
  9
$PLINEGEN
 70
     0
  9
$PSLTSCALE
 70
     1
  9
$TREEDEPTH
 70
  3020
  9
$CMLSTYLE
  2
Standard
  9
$CMLJUST
 70
     0
  9
$CMLSCALE
 40
1.0
  9
$PROXYGRAPHICS
 70
     1
  9
$MEASUREMENT
 70
     0
  9
$CELWEIGHT
370
    -1
  9
$ENDCAPS
280
     0
  9
$JOINSTYLE
280
     0
  9
$LWDISPLAY
290
     0
  9
$INSUNITS
 70
     4
  9
$HYPERLINKBASE
  1

  9
$STYLESHEET
  1

  9
$XEDIT
290
     1
  9
$CEPSNTYPE
380
     0
  9
$PSTYLEMODE
290
     1
  9
$FINGERPRINTGUID
  2
{801422e1-52af-3c4d-91fc-ccd79e38b5a0}
  9
$VERSIONGUID
  2
{1130891D-7882-416F-A81A-177DE17A358A}
  9
$EXTNAMES
290
     1
  9
$PSVPSCALE
 40
0.0
  9
$OLESTARTUP
290
     0
  9
$SORTENTS
280
   127
  9
$INDEXCTL
280
     0
  9
$HIDETEXT
280
     1
  9
$XCLIPFRAME
280
     2
  9
$HALOGAP
280
     0
  9
$OBSCOLOR
 70
   257
  9
$OBSLTYPE
280
     0
  9
$INTERSECTIONDISPLAY
280
     0
  9
$INTERSECTIONCOLOR
 70
   257
  9
$DIMASSOC
280
     2
  9
$PROJECTNAME
  1

  9
$CAMERADISPLAY
290
     0
  9
$LENSLENGTH
 40
50.0
  9
$CAMERAHEIGHT
 40
0.0
  9
$STEPSPERSEC
 40
2.0
  9
$STEPSIZE
 40
6.0
  9
$3DDWFPREC
 40
2.0
  9
$PSOLWIDTH
 40
0.25
  9
$PSOLHEIGHT
 40
4.0
  9
$LOFTANG1
 40
1.570796326794897
  9
$LOFTANG2
 40
1.570796326794897
  9
$LOFTMAG1
 40
0.0
  9
$LOFTMAG2
 40
0.0
  9
$LOFTPARAM
 70
     7
  9
$LOFTNORMALS
280
     1
  9
$LATITUDE
 40
37.795
  9
$LONGITUDE
 40
-122.394
  9
$NORTHDIRECTION
 40
0.0
  9
$TIMEZONE
 70
 -8000
  9
$LIGHTGLYPHDISPLAY
280
     1
  9
$TILEMODELIGHTSYNCH
280
     1
  9
$CMATERIAL
347
1001C
  9
$SOLIDHIST
280
     0
  9
$SHOWHIST
280
     1
  9
$DWFFRAME
280
     2
  9
$DGNFRAME
280
     2
  9
$REALWORLDSCALE
290
     1
  9
$INTERFERECOLOR
 62
   256
  9
$CSHADOW
280
     0
  9
$SHADOWPLANELOCATION
 40
0.0
  0
ENDSEC
  0
SECTION
  2
CLASSES
  0
CLASS
  1
ACDBDICTIONARYWDFLT
  2
AcDbDictionaryWithDefault
  3
ObjectDBX Classes
 90
        0
 91
        3
280
     0
281
     0
  0
CLASS
  1
SCALE
  2
AcDbScale
  3
ObjectDBX Classes
 90
     1153
 91
        3
280
     0
281
     0
  0
CLASS
  1
MATERIAL
  2
AcDbMaterial
  3
ObjectDBX Classes
 90
     1153
 91
        3
280
     0
281
     0
  0
CLASS
  1
VISUALSTYLE
  2
AcDbVisualStyle
  3
ObjectDBX Classes
 90
     4095
 91
        3
280
     0
281
     0
  0
CLASS
  1
TABLESTYLE
  2
AcDbTableStyle
  3
ObjectDBX Classes
 90
     4095
 91
        3
280
     0
281
     0
  0
CLASS
  1
MLEADERSTYLE
  2
AcDbMLeaderStyle
  3
ACDB_MLEADERSTYLE_CLASS
 90
     4095
 91
        3
280
     0
281
     0
  0
CLASS
  1
DICTIONARYVAR
  2
AcDbDictionaryVar
  3
ObjectDBX Classes
 90
        0
 91
        3
280
     0
281
     0
  0
CLASS
  1
CELLSTYLEMAP
  2
AcDbCellStyleMap
  3
ObjectDBX Classes
 90
     1152
 91
        3
280
     0
281
     0
  0
CLASS
  1
SUN
  2
AcDbSun
  3
SCENEOE
 90
     1153
 91
        3
280
     0
281
     0
  0
CLASS
  1
MENTALRAYRENDERSETTINGS
  2
AcDbMentalRayRenderSettings
  3
SCENEOE
 90
     1024
 91
        3
280
     0
281
     0
  0
CLASS
  1
ACDBDETAILVIEWSTYLE
  2
AcDbDetailViewStyle
  3
ObjectDBX Classes
 90
     1025
 91
        3
280
     0
281
     0
  0
CLASS
  1
ACDBSECTIONVIEWSTYLE
  2
AcDbSectionViewStyle
  3
ObjectDBX Classes
 90
     1025
 91
        3
280
     0
281
     0
  0
CLASS
  1
RASTERVARIABLES
  2
AcDbRasterVariables
  3
ISM
 90
        0
 91
        3
280
     0
281
     0
  0
CLASS
  1
ACDBPLACEHOLDER
  2
AcDbPlaceHolder
  3
ObjectDBX Classes
 90
        0
 91
        1
280
     0
281
     0
  0
CLASS
  1
LAYOUT
  2
AcDbLayout
  3
ObjectDBX Classes
 90
        0
 91
        1
280
     0
281
     0
  0
ENDSEC
  0
SECTION
  2
TABLES
  0
TABLE
  2
VPORT
  5
8
330
0
100
AcDbSymbolTable
 70
     1
  0
VPORT
  5
10001
330
8
100
AcDbSymbolTableRecord
100
AcDbViewportTableRecord
  2
*Active
 70
     0
 10
0.0
 20
0.0
 11
1.0
 21
1.0
 12
10.42990654205607
 22
4.5
 13
0.0
 23
0.0
 14
0.5
 24
0.5
 15
0.5
 25
0.5
 16
0.0
 26
0.0
 36
1.0
 17
0.0
 27
0.0
 37
0.0
 40
9.0
 41
1.972972972850329
 42
50.0
 43
0.0
 44
0.0
 50
0.0
 51
0.0
 71
     0
 72
   100
 73
     1
 74
     3
 75
     0
 76
     0
 77
     0
 78
     0
281
     0
 65
     1
110
0.0
120
0.0
130
0.0
111
1.0
121
0.0
131
0.0
112
0.0
122
1.0
132
0.0
 79
     0
146
0.0
348
10024
 60
     3
 61
     5
292
     1
282
     1
141
0.0
142
0.0
 63
   250
  0
ENDTAB
  0
TABLE
  2
LTYPE
  5
5
330
0
100
AcDbSymbolTable
 70
     2
  0
LTYPE
  5
14
330
5
100
AcDbSymbolTableRecord
100
AcDbLinetypeTableRecord
  2
BYBLOCK
 70
     0
  3

 72
    65
 73
     0
 40
0.0
  0
LTYPE
  5
15
330
5
100
AcDbSymbolTableRecord
100
AcDbLinetypeTableRecord
  2
BYLAYER
 70
     0
  3

 72
    65
 73
     0
 40
0.0
  0
LTYPE
  5
FFFF
330
5
100
AcDbSymbolTableRecord
100
AcDbLinetypeTableRecord
  2
Continuous
 70
     0
  3
Solid line
 72
    65
 73
     0
 40
0.0
  0
LTYPE
  5
16
330
5
100
AcDbSymbolTableRecord
100
AcDbLinetypeTableRecord
  2
DASHED
 70
     0
  3
Dashed __ __ __ __ __ __ __ __ __ __ __ __ __ _
 72
    65
 73
     2
 40
0.75
 49
0.5
 74
     0
 49
-0.25
 74
     0
  0
ENDTAB
  0
TABLE
  2
LAYER
  5
2
330
0
100
AcDbSymbolTable
 70
     3
  0
LAYER
  5
51
330
2
100
AcDbSymbolTableRecord
100
AcDbLayerTableRecord
  2
0
 70
     0
 62
     7
  6
Continuous
370
    -3
390
10005
347
1001E
348
0
  0
LAYER
  5
50
330
2
100
AcDbSymbolTableRecord
100
AcDbLayerTableRecord
  2
1
 70
     0
 62
     7
  6
DASHED
370
    -3
390
10005
347
1001E
348
0
  0
LAYER
  5
10047
330
2
100
AcDbSymbolTableRecord
100
AcDbLayerTableRecord
  2
Defpoints
 70
     0
 62
     7
  6
Continuous
290
     0
370
    -3
390
10005
347
1001E
348
0
  0
ENDTAB
  0
TABLE
  2
STYLE
  5
3
330
0
100
AcDbSymbolTable
 70
     1
  0
STYLE
  5
11
330
3
100
AcDbSymbolTableRecord
100
AcDbTextStyleTableRecord
  2
STANDARD
 70
     0
 40
0.2
 41
1.0
 50
0.0
 71
     0
 42
0.2
  3

  4

  0
ENDTAB
  0
TABLE
  2
VIEW
  5
6
330
0
100
AcDbSymbolTable
 70
     0
  0
ENDTAB
  0
TABLE
  2
UCS
  5
7
330
0
100
AcDbSymbolTable
 70
     0
  0
ENDTAB
  0
TABLE
  2
APPID
  5
9
330
0
100
AcDbSymbolTable
 70
     3
  0
APPID
  5
12
330
9
100
AcDbSymbolTableRecord
100
AcDbRegAppTableRecord
  2
ACAD
 70
     0
  0
APPID
  5
1004E
330
9
100
AcDbSymbolTableRecord
100
AcDbRegAppTableRecord
  2
HATCHBACKGROUNDCOLOR
 70
     0
  0
APPID
  5
1004F
330
9
100
AcDbSymbolTableRecord
100
AcDbRegAppTableRecord
  2
EZDXF
 70
     0
  0
ENDTAB
  0
TABLE
  2
DIMSTYLE
  5
A
330
0
100
AcDbSymbolTable
 70
     1
100
AcDbDimStyleTable
  0
DIMSTYLE
105
10000
330
A
100
AcDbSymbolTableRecord
100
AcDbDimStyleTableRecord
  2
Standard
 70
     0
 41
2.5
 42
0.625
 43
3.75
 44
1.25
 49
2.5
 73
     0
 74
     0
 77
     1
 78
     8
 79
     3
140
2.5
141
2.5
143
0.03937007874
147
0.625
171
     3
172
     1
178
     0
179
     2
271
     2
272
     2
274
     3
278
    44
283
     0
284
     8
340
11
  0
ENDTAB
  0
TABLE
  2
BLOCK_RECORD
  5
1
330
0
100
AcDbSymbolTable
 70
     0
  0
BLOCK_RECORD
  5
1F
330
1
100
AcDbSymbolTableRecord
100
AcDbBlockTableRecord
  2
*MODEL_SPACE
340
10019
 70
     0
280
     1
281
     0
  0
BLOCK_RECORD
  5
1B
330
1
100
AcDbSymbolTableRecord
100
AcDbBlockTableRecord
  2
*PAPER_SPACE
340
1001A
 70
     0
280
     1
281
     0
  0
ENDTAB
  0
ENDSEC
  0
SECTION
  2
BLOCKS
  0
BLOCK
  5
20
330
1F
100
AcDbEntity
  8
0
100
AcDbBlockBegin
  2
*MODEL_SPACE
 70
     0
 10
0.0
 20
0.0
 30
0.0
  3
*MODEL_SPACE
  1

  0
ENDBLK
  5
21
330
1F
100
AcDbEntity
  8
0
100
AcDbBlockEnd
  0
BLOCK
  5
1C
330
1B
100
AcDbEntity
 67
     1
  8
0
100
AcDbBlockBegin
  2
*PAPER_SPACE
 70
     0
 10
0.0
 20
0.0
 30
0.0
  3
*PAPER_SPACE
  1

  0
ENDBLK
  5
1D
330
1B
100
AcDbEntity
 67
     1
  8
0
100
AcDbBlockEnd
  0
ENDSEC
  0
SECTION
  2
ENTITIES
  0
ARC
  5
100
330
1F
100
AcDbEntity
  8
0
100
AcDbCircle
 10
-8.250001000000001
 20
8.250001000000001
 30
0.0
 40
0.9999989999999996
100
AcDbArc
 50
90.00005729999998
 51
180.0
  0
LINE
  5
101
330
1F
100
AcDbEntity
  8
0
100
AcDbLine
 10
17.366666
 20
9.25
 30
0.0
 11
79.51666399999999
 21
9.25
 31
0.0
  0
ARC
  5
102
330
1F
100
AcDbEntity
  8
0
100
AcDbCircle
 10
169.183293
 20
11.749993
 30
0.0
 40
2.999960000006
100
AcDbArc
 50
89.99921695999974
 51
179.9998854097085
  0
ARC
  5
103
330
1F
100
AcDbEntity
  8
0
100
AcDbCircle
 10
44.49169300000001
 20
-85.950007
 30
0.0
 40
0.4999930005290101
100
AcDbArc
 50
90.00263557000041
 51
269.9973643599999
  0
ARC
  5
104
330
1F
100
AcDbEntity
  8
0
100
AcDbCircle
 10
274.9499930000001
 20
-84.450007
 30
0.0
 40
1.000007000024507
100
AcDbArc
 50
-89.99959893000045
 51
0.0004010701096926
  0
ARC
  5
105
330
1F
100
AcDbEntity
  8
0
100
AcDbCircle
 10
38.991693
 20
-86.450007
 30
0.0
 40
1.000007000264498
100
AcDbArc
 50
0.0005156700942944
 51
90.00131778999966
  0
ARC
  5
106
330
1F
100
AcDbEntity
  8
0
100
AcDbCircle
 10
253.3334929999999
 20
11.749893
 30
0.0
 40
3.000160001908064
100
AcDbArc
 50
89.61886859000059
 51
179.9979565600622
  0
LINE
  5
107
330
1F
100
AcDbEntity
  8
0
100
AcDbLine
 10
-3.633333
 20
-87.95000200000001
 30
0.0
 11
-3.633333
 21
-86.450003
 31
0.0
  0
ARC
  5
108
330
1F
100
AcDbEntity
  8
0
100
AcDbCircle
 10
253.333393
 20
-87.949907
 30
0.0
 40
3.000093001441438
100
AcDbArc
 50
180.0017761299222
 51
269.9982238899994
  0
LINE
  5
109
330
1F
100
AcDbEntity
  8
0
100
AcDbLine
 10
16.366667
 20
-86.449999
 30
0.0
 11
16.366667
 21
-87.94999899999999
 31
0.0
  0
LINE
  5
110
330
1F
100
AcDbEntity
  8
0
100
AcDbLine
 10
-8.250002000072662
 20
9.249999999999499
 30
0.0
 11
-4.633336
 21
9.25
 31
0.0
  0
LINE
  5
111
330
1F
100
AcDbEntity
  8
0
100
AcDbLine
 10
271.3333
 20
9.25
 30
0.0
 11
274.95
 21
9.25
 31
0.0
  0
ARC
  5
112
330
1F
100
AcDbEntity
  8
0
100
AcDbCircle
 10
17.366693
 20
-86.450007
 30
0.0
 40
1.000026000032007
100
AcDbArc
 50
90.00148968000008
 51
179.9995416459903
  0
LINE
  5
113
330
1F
100
AcDbEntity
  8
0
100
AcDbLine
 10
38.99167000006465
 20
-85.45
 30
0.0
 11
17.366667
 21
-85.45
 31
0.0
  0
ARC
  5
114
330
1F
100
AcDbEntity
  8
0
100
AcDbCircle
 10
267.333393
 20
-87.95000700000001
 30
0.0
 40
2.999940000008163
100
AcDbArc
 50
-90.00114592000018
 51
0.0001336885220042
  0
LINE
  5
115
330
1F
100
AcDbEntity
  8
0
100
AcDbLine
 10
250.333333
 20
-87.95
 30
0.0
 11
250.333333
 21
-86.461676
 31
0.0
  0
LINE
  5
116
330
1F
100
AcDbEntity
  8
0
100
AcDbLine
 10
267.333333
 20
-90.95
 30
0.0
 11
253.3333000002149
 21
-90.95
 31
0.0
  0
ARC
  5
117
330
1F
100
AcDbEntity
  8
0
100
AcDbCircle
 10
249.333193
 20
-86.450207
 30
0.0
 40
1.000205757612418
100
AcDbArc
 50
-0.6570045126339874
 51
89.99959900999923
  0
LINE
  5
118
330
1F
100
AcDbEntity
  8
0
100
AcDbLine
 10
275.95
 20
8.25
 30
0.0
 11
275.95
 21
-84.44999999995898
 31
0.0
  0
LINE
  5
119
330
1F
100
AcDbEntity
  8
0
100
AcDbLine
 10
270.333333
 20
-86.4501
 30
0.0
 11
270.333333
 21
-87.95000000014797
 31
0.0
  0
LINE
  5
120
330
1F
100
AcDbEntity
  8
0
100
AcDbLine
 10
39.99167
 20
-87.94999899999999
 30
0.0
 11
39.99167
 21
-86.449998
 31
0.0
  0
LINE
  5
121
330
1F
100
AcDbEntity
  8
0
100
AcDbLine
 10
59.99167
 20
-86.449999
 30
0.0
 11
59.99167
 21
-87.94999899999999
 31
0.0
  0
LINE
  5
122
330
1F
100
AcDbEntity
  8
0
100
AcDbLine
 10
226.70833
 20
-86.4501
 30
0.0
 11
226.70833
 21
-87.95
 31
0.0
  0
LINE
  5
123
330
1F
100
AcDbEntity
  8
0
100
AcDbLine
 10
0.866667
 20
9.25
 30
0.0
 11
11.866667
 21
9.25
 31
0.0
  0
ARC
  5
124
330
1F
100
AcDbEntity
  8
0
100
AcDbCircle
 10
96.01669299999999
 20
9.749993000000002
 30
0.0
 40
0.5000070006759908
100
AcDbArc
 50
-90.00297942000027
 51
90.00297933999923
  0
ARC
  5
125
330
1F
100
AcDbEntity
  8
0
100
AcDbCircle
 10
274.949893
 20
8.249893
 30
0.0
 40
1.000107005723873
100
AcDbArc
 50
0.0061299924601195
 51
89.9938700075239
  0
ARC
  5
126
330
1F
100
AcDbEntity
  8
0
100
AcDbCircle
 10
11.866693
 20
9.749993000000002
 30
0.0
 40
0.5000070006759908
100
AcDbArc
 50
-90.00297942000007
 51
90.00297934000002
  0
LINE
  5
127
330
1F
100
AcDbEntity
  8
0
100
AcDbLine
 10
11.86666699998971
 20
10.25
 30
0.0
 11
0.866667000000001
 21
10.25
 31
0.0
  0
LINE
  5
128
330
1F
100
AcDbEntity
  8
0
100
AcDbLine
 10
181.68333
 20
10.25
 30
0.0
 11
170.683333
 21
10.25
 31
0.0
  0
ARC
  5
129
330
1F
100
AcDbEntity
  8
0
100
AcDbCircle
 10
11.866693
 20
-85.950007
 30
0.0
 40
0.5000070006759919
100
AcDbArc
 50
-90.00297942000007
 51
90.00297934000002
  0
LINE
  5
130
330
1F
100
AcDbEntity
  8
0
100
AcDbLine
 10
170.683333
 20
9.25
 30
0.0
 11
181.68333
 21
9.25
 31
0.0
  0
LINE
  5
131
330
1F
100
AcDbEntity
  8
0
100
AcDbLine
 10
0.866667
 20
-86.45000000000002
 30
0.0
 11
11.866667
 21
-86.45000000000002
 31
0.0
  0
ARC
  5
132
330
1F
100
AcDbEntity
  8
0
100
AcDbCircle
 10
85.016693
 20
9.749993000000002
 30
0.0
 40
0.4999930006760095
100
AcDbArc
 50
90.00297934000207
 51
269.9970205799979
  0
LINE
  5
133
330
1F
100
AcDbEntity
  8
0
100
AcDbLine
 10
11.86666699998971
 20
-85.45
 30
0.0
 11
0.866667000000001
 21
-85.45
 31
0.0
  0
ARC
  5
134
330
1F
100
AcDbEntity
  8
0
100
AcDbCircle
 10
187.183393
 20
10.250093
 30
0.0
 40
1.000093004324102
100
AcDbArc
 50
180.0053281899668
 51
269.9946719900014
  0
ARC
  5
135
330
1F
100
AcDbEntity
  8
0
100
AcDbCircle
 10
60.991693
 20
-86.450007
 30
0.0
 40
1.000023000031992
100
AcDbArc
 50
90.00131779
 51
179.9995416443999
  0
ARC
  5
136
330
1F
100
AcDbEntity
  8
0
100
AcDbCircle
 10
267.333193
 20
11.749793
 30
0.0
 40
3.000207001908031
100
AcDbArc
 50
-0.3779762299996121
 51
89.99795659000019
  0
LINE
  5
137
330
1F
100
AcDbEntity
  8
0
100
AcDbLine
 10
-9.25
 20
-84.45000200000001
 30
0.0
 11
-9.25
 21
8.250001000000001
 31
0.0
  0
LINE
  5
138
330
1F
100
AcDbEntity
  8
0
100
AcDbLine
 10
206.2082
 20
-85.45
 30
0.0
 11
60.99167000000001
 21
-85.45
 31
0.0
  0
LINE
  5
139
330
1F
100
AcDbEntity
  8
0
100
AcDbLine
 10
206.70833
 20
-87.95
 30
0.0
 11
206.70833
 21
-85.941733
 31
0.0
  0
ARC
  5
140
330
1F
100
AcDbEntity
  8
0
100
AcDbCircle
 10
206.208093
 20
-85.95030700000001
 30
0.0
 40
0.5003104732513659
100
AcDbArc
 50
0.9819463892481871
 51
89.98774622719256
  0
LINE
  5
141
330
1F
100
AcDbEntity
  8
0
100
AcDbLine
 10
169.183334
 20
14.75
 30
0.0
 11
183.18333
 21
14.75
 31
0.0
  0
LINE
  5
142
330
1F
100
AcDbEntity
  8
0
100
AcDbLine
 10
80.516667
 20
10.250003
 30
0.0
 11
80.516667
 21
11.750002
 31
0.0
  0
ARC
  5
143
330
1F
100
AcDbEntity
  8
0
100
AcDbCircle
 10
183.183393
 20
11.750093
 30
0.0
 40
2.999907000661524
100
AcDbArc
 50
-0.1165608799990534
 51
90.00120324867052
  0
LINE
  5
144
330
1F
100
AcDbEntity
  8
0
100
AcDbLine
 10
166.183333
 20
10.25
 30
0.0
 11
166.183333
 21
11.74999899983837
 31
0.0
  0
LINE
  5
145
330
1F
100
AcDbEntity
  8
0
100
AcDbLine
 10
253.35345
 20
14.75
 30
0.0
 11
267.3333000000799
 21
14.75
 31
0.0
  0
LINE
  5
146
330
1F
100
AcDbEntity
  8
0
100
AcDbLine
 10
249.3332000000445
 20
-85.45
 30
0.0
 11
227.720232
 21
-85.45
 31
0.0
  0
ARC
  5
147
330
1F
100
AcDbEntity
  8
0
100
AcDbCircle
 10
271.333493
 20
-86.450107
 30
0.0
 40
1.000160000024489
100
AcDbArc
 50
89.3421718599971
 51
179.9995989944154
  0
LINE
  5
148
330
1F
100
AcDbEntity
  8
0
100
AcDbLine
 10
44.49167000002404
 20
-86.44999999999999
 30
0.0
 11
55.49167000000001
 21
-86.45000000000002
 31
0.0
  0
LINE
  5
149
330
1F
100
AcDbEntity
  8
0
100
AcDbLine
 10
55.49167000000001
 20
-85.45
 30
0.0
 11
44.49167
 21
-85.45
 31
0.0
  0
LINE
  5
150
330
1F
100
AcDbEntity
  8
0
100
AcDbLine
 10
-3.633333
 20
10.250003
 30
0.0
 11
-3.633333
 21
11.750002
 31
0.0
  0
ARC
  5
151
330
1F
100
AcDbEntity
  8
0
100
AcDbCircle
 10
17.366693
 20
10.249993
 30
0.0
 40
0.9999930003645032
100
AcDbArc
 50
179.9997135299963
 51
269.9984530031246
  0
ARC
  5
152
330
1F
100
AcDbEntity
  8
0
100
AcDbCircle
 10
-4.633337
 20
-86.450007
 30
0.0
 40
1.000004000008
100
AcDbArc
 50
0.0002291821733655
 51
89.99994269999999
  0
LINE
  5
153
330
1F
100
AcDbEntity
  8
0
100
AcDbLine
 10
274.95
 20
-85.45
 30
0.0
 11
271.344976
 21
-85.45
 31
0.0
  0
ARC
  5
154
330
1F
100
AcDbEntity
  8
0
100
AcDbCircle
 10
249.333393
 20
10.249993
 30
0.0
 40
0.9999400000245012
100
AcDbArc
 50
-90.00343776999969
 51
0.0004010901012697
  0
LINE
  5
155
330
1F
100
AcDbEntity
  8
0
100
AcDbLine
 10
-4.633335999919338
 20
-85.45
 30
0.0
 11
-8.250001000000001
 21
-85.45
 31
0.0
  0
ARC
  5
156
330
1F
100
AcDbEntity
  8
0
100
AcDbCircle
 10
271.333393
 20
10.250093
 30
0.0
 40
1.000093004324102
100
AcDbArc
 50
180.0053281899668
 51
269.9946719880261
  0
LINE
  5
157
330
1F
100
AcDbEntity
  8
0
100
AcDbLine
 10
13.366666
 20
-90.95
 30
0.0
 11
-0.6333349999999993
 21
-90.95
 31
0.0
  0
LINE
  5
158
330
1F
100
AcDbEntity
  8
0
100
AcDbLine
 10
270.3333347184181
 20
11.73000098885671
 30
0.0
 11
270.333333
 21
10.25
 31
0.0
  0
ARC
  5
159
330
1F
100
AcDbEntity
  8
0
100
AcDbCircle
 10
-0.6333369999999999
 20
-87.95000700000001
 30
0.0
 40
2.999996000004167
100
AcDbArc
 50
179.9999045070302
 51
270.0000381972755
  0
ARC
  5
160
330
1F
100
AcDbEntity
  8
0
100
AcDbCircle
 10
97.516693
 20
11.749993
 30
0.0
 40
3.000007000121494
100
AcDbArc
 50
0.000095489153064
 51
90.00051566000013
  0
ARC
  5
161
330
1F
100
AcDbEntity
  8
0
100
AcDbCircle
 10
254.833293
 20
-85.950007
 30
0.0
 40
0.4999930000489944
100
AcDbArc
 50
89.9991978699994
 51
270.0008021499982
  0
ARC
  5
162
330
1F
100
AcDbEntity
  8
0
100
AcDbCircle
 10
265.833293
 20
-85.950007
 30
0.0
 40
0.5000070000490019
100
AcDbArc
 50
-89.99919784999601
 51
89.99919786999955
  0
LINE
  5
163
330
1F
100
AcDbEntity
  8
0
100
AcDbLine
 10
254.8332999999813
 20
-86.44999999999999
 30
0.0
 11
265.8333
 21
-86.45000000000002
 31
0.0
  0
LINE
  5
164
330
1F
100
AcDbEntity
  8
0
100
AcDbLine
 10
265.8333000000027
 20
-85.45
 30
0.0
 11
254.8333
 21
-85.45
 31
0.0
  0
ARC
  5
165
330
1F
100
AcDbEntity
  8
0
100
AcDbCircle
 10
55.491693
 20
-85.950007
 30
0.0
 40
0.5000070005289857
100
AcDbArc
 50
-90.00263563999992
 51
90.00263556895682
  0
ARC
  5
166
330
1F
100
AcDbEntity
  8
0
100
AcDbCircle
 10
-4.633337
 20
10.250003
 30
0.0
 40
1.0000030000005
100
AcDbArc
 50
-89.99994270439238
 51
0.0
  0
LINE
  5
167
330
1F
100
AcDbEntity
  8
0
100
AcDbLine
 10
186.183333
 20
11.74399
 30
0.0
 11
186.183333
 21
10.25
 31
0.0
  0
ARC
  5
168
330
1F
100
AcDbEntity
  8
0
100
AcDbCircle
 10
13.366663
 20
-87.949997
 30
0.0
 40
3.000003000001507
100
AcDbArc
 50
270.0000572957222
 51
359.9999618085375
  0
LINE
  5
169
330
1F
100
AcDbEntity
  8
0
100
AcDbLine
 10
100.516667
 20
11.749998
 30
0.0
 11
100.516667
 21
10.249998
 31
0.0
  0
LINE
  5
170
330
1F
100
AcDbEntity
  8
0
100
AcDbLine
 10
16.366667
 20
11.749998
 30
0.0
 11
16.366667
 21
10.249998
 31
0.0
  0
LINE
  5
171
330
1F
100
AcDbEntity
  8
0
100
AcDbLine
 10
85.01666700001957
 20
9.250000000000002
 30
0.0
 11
96.01666700000001
 21
9.25
 31
0.0
  0
ARC
  5
172
330
1F
100
AcDbEntity
  8
0
100
AcDbCircle
 10
0.866663
 20
9.750003
 30
0.0
 40
0.499997000016001
100
AcDbArc
 50
89.99954163101359
 51
270.000458363486
  0
ARC
  5
173
330
1F
100
AcDbEntity
  8
0
100
AcDbCircle
 10
223.708393
 20
-87.95000700000001
 30
0.0
 40
2.999937000008175
100
AcDbArc
 50
-90.00120320999996
 51
0.0001336912481994
  0
LINE
  5
174
330
1F
100
AcDbEntity
  8
0
100
AcDbLine
 10
223.70833
 20
-90.95
 30
0.0
 11
209.7083
 21
-90.95
 31
0.0
  0
ARC
  5
175
330
1F
100
AcDbEntity
  8
0
100
AcDbCircle
 10
165.183293
 20
10.249993
 30
0.0
 40
1.000040000024499
100
AcDbArc
 50
-89.9975935600014
 51
0.0004010546609733
  0
ARC
  5
176
330
1F
100
AcDbEntity
  8
0
100
AcDbCircle
 10
13.366663
 20
11.750003
 30
0.0
 40
3.000004000004167
100
AcDbArc
 50
-0.0000954929697869
 51
89.99994269999999
  0
ARC
  5
177
330
1F
100
AcDbEntity
  8
0
100
AcDbCircle
 10
42.991693
 20
-87.95000700000001
 30
0.0
 40
2.999993000080665
100
AcDbArc
 50
179.9998472126796
 51
269.9995798300001
  0
LINE
  5
178
330
1F
100
AcDbEntity
  8
0
100
AcDbLine
 10
56.991669
 20
-90.95
 30
0.0
 11
42.99167100000158
 21
-90.95
 31
0.0
  0
ARC
  5
179
330
1F
100
AcDbEntity
  8
0
100
AcDbCircle
 10
209.708393
 20
-87.949907
 30
0.0
 40
3.000093001441474
100
AcDbArc
 50
180.0017761299222
 51
269.9982238858955
  0
ARC
  5
180
330
1F
100
AcDbEntity
  8
0
100
AcDbCircle
 10
101.516693
 20
10.249993
 30
0.0
 40
0.9999930003645053
100
AcDbArc
 50
179.9997135299963
 51
269.9984530000002
  0
ARC
  5
181
330
1F
100
AcDbEntity
  8
0
100
AcDbCircle
 10
-0.6333369999999999
 20
11.750003
 30
0.0
 40
2.999996000000167
100
AcDbArc
 50
89.99996180000001
 51
180.0000190909591
  0
ARC
  5
182
330
1F
100
AcDbEntity
  8
0
100
AcDbCircle
 10
-8.250001000000001
 20
-84.450001
 30
0.0
 40
0.9999990000005003
100
AcDbArc
 50
180.0000572919651
 51
270.0
  0
ARC
  5
183
330
1F
100
AcDbEntity
  8
0
100
AcDbCircle
 10
83.51669299999999
 20
11.749993
 30
0.0
 40
3.000026000013501
100
AcDbArc
 50
90.00053475999998
 51
179.9998281156229
  0
LINE
  5
184
330
1F
100
AcDbEntity
  8
0
100
AcDbLine
 10
265.8333
 20
10.25
 30
0.0
 11
254.8333
 21
10.25
 31
0.0
  0
LINE
  5
185
330
1F
100
AcDbEntity
  8
0
100
AcDbLine
 10
254.8333
 20
9.25
 30
0.0
 11
265.8333
 21
9.25
 31
0.0
  0
ARC
  5
186
330
1F
100
AcDbEntity
  8
0
100
AcDbCircle
 10
170.683393
 20
9.749993000000002
 30
0.0
 40
0.4999930036000512
100
AcDbArc
 50
90.00687540000051
 51
269.9931244102343
  0
ARC
  5
187
330
1F
100
AcDbEntity
  8
0
100
AcDbCircle
 10
181.683393
 20
9.749993000000002
 30
0.0
 40
0.5000070039689444
100
AcDbArc
 50
-90.00721936999844
 51
90.00721916711016
  0
ARC
  5
188
330
1F
100
AcDbEntity
  8
0
100
AcDbCircle
 10
0.866663
 20
-85.94999700000001
 30
0.0
 40
0.4999970000160077
100
AcDbArc
 50
89.99954163101359
 51
270.000458363486
  0
ARC
  5
189
330
1F
100
AcDbEntity
  8
0
100
AcDbCircle
 10
211.208293
 20
-85.950007
 30
0.0
 40
0.4999930000489944
100
AcDbArc
 50
89.99919786999615
 51
270.0008021500014
  0
ARC
  5
190
330
1F
100
AcDbEntity
  8
0
100
AcDbCircle
 10
222.208293
 20
-85.950007
 30
0.0
 40
0.5000070000490019
100
AcDbArc
 50
-89.99919785000252
 51
89.9991978700028
  0
LINE
  5
191
330
1F
100
AcDbEntity
  8
0
100
AcDbLine
 10
211.2082999999813
 20
-86.44999999999999
 30
0.0
 11
222.2083
 21
-86.45000000000002
 31
0.0
  0
ARC
  5
192
330
1F
100
AcDbEntity
  8
0
100
AcDbCircle
 10
227.708493
 20
-86.450107
 30
0.0
 40
1.000163000024489
100
AcDbArc
 50
89.32750769000099
 51
179.9995989953243
  0
LINE
  5
193
330
1F
100
AcDbEntity
  8
0
100
AcDbLine
 10
83.516665
 20
14.75
 30
0.0
 11
97.51666600004253
 21
14.75
 31
0.0
  0
LINE
  5
194
330
1F
100
AcDbEntity
  8
0
100
AcDbLine
 10
250.333333
 20
10.24999999992108
 30
0.0
 11
250.333333
 21
11.74999999997461
 31
0.0
  0
LINE
  5
195
330
1F
100
AcDbEntity
  8
0
100
AcDbLine
 10
96.01666699998971
 20
10.25
 30
0.0
 11
85.016667
 21
10.25
 31
0.0
  0
LINE
  5
196
330
1F
100
AcDbEntity
  8
0
100
AcDbLine
 10
187.1833000000345
 20
9.249999999999996
 30
0.0
 11
249.333333
 21
9.25
 31
0.0
  0
ARC
  5
197
330
1F
100
AcDbEntity
  8
0
100
AcDbCircle
 10
56.99169300000001
 20
-87.95000700000001
 30
0.0
 40
2.99997700001067
100
AcDbArc
 50
-90.00045836999999
 51
0.0001527897058525
  0
LINE
  5
198
330
1F
100
AcDbEntity
  8
0
100
AcDbLine
 10
-0.6333349998553441
 20
14.7499989999995
 30
0.0
 11
13.36666600021798
 21
14.75
 31
0.0
  0
LINE
  5
199
330
1F
100
AcDbEntity
  8
0
100
AcDbLine
 10
222.2083000000028
 20
-85.45
 30
0.0
 11
211.2083
 21
-85.45
 31
0.0
  0
ARC
  5
200
330
1F
100
AcDbEntity
  8
0
100
AcDbCircle
 10
254.833293
 20
9.749993000000002
 30
0.0
 40
0.4999930000489999
100
AcDbArc
 50
89.9991978699994
 51
270.0008021521347
  0
ARC
  5
201
330
1F
100
AcDbEntity
  8
0
100
AcDbCircle
 10
265.833293
 20
9.749993000000002
 30
0.0
 40
0.5000070000489997
100
AcDbArc
 50
-89.99919784999601
 51
89.99919787031219
  0
ARC
  5
202
330
1F
100
AcDbEntity
  8
0
100
AcDbCircle
 10
79.51669299999999
 20
10.249993
 30
0.0
 40
0.9999740000500018
100
AcDbArc
 50
-90.00166158999953
 51
0.0005729724492007
  0
LINE
  5
203
330
1F
100
AcDbEntity
  8
0
100
AcDbLine
 10
101.5166659999455
 20
9.250000000000004
 30
0.0
 11
165.183335
 21
9.25
 31
0.0
  0
ARC
  5
206
330
1F
100
AcDbEntity
  8
0
100
AcDbCircle
 10
119.923935
 20
-74.199925
 30
0.0
 40
1.049925002400649
100
AcDbArc
 50
-0.0040928299515941
 51
90.00387455999956
  0
LINE
  5
213
330
1F
100
AcDbEntity
  8
0
100
AcDbLine
 10
145.723864
 20
-74.2
 30
0.0
 11
145.723864
 21
-78.2
 31
0.0
  0
LINE
  5
214
330
1F
100
AcDbEntity
  8
0
100
AcDbLine
 10
120.973864
 20
-78.2
 30
0.0
 11
120.9738599997219
 21
-74.19999999966979
 31
0.0
  0
ARC
  5
216
330
1F
100
AcDbEntity
  8
0
100
AcDbCircle
 10
177.573835
 20
-78.200025
 30
0.0
 40
1.050029000297615
100
AcDbArc
 50
-89.99841750999911
 51
0.0013641499565484
  0
LINE
  5
219
330
1F
100
AcDbEntity
  8
0
100
AcDbLine
 10
119.9238640000512
 20
-73.14999999999999
 30
0.0
 11
89.12386400000001
 21
-73.14999999999999
 31
0.0
  0
LINE
  5
220
330
1F
100
AcDbEntity
  8
0
100
AcDbLine
 10
146.773864
 20
-79.25
 30
0.0
 11
177.573864
 21
-79.25
 31
0.0
  0
ARC
  5
221
330
1F
100
AcDbEntity
  8
0
100
AcDbCircle
 10
119.923835
 20
-78.200025
 30
0.0
 40
1.050029000297615
100
AcDbArc
 50
-89.99841751000065
 51
0.0013641475519847
  0
ARC
  5
229
330
1F
100
AcDbEntity
  8
0
100
AcDbCircle
 10
89.12383500000001
 20
-74.200025
 30
0.0
 40
1.049971000297626
100
AcDbArc
 50
89.99841758000045
 51
179.9986357803129
  0
ARC
  5
230
330
1F
100
AcDbEntity
  8
0
100
AcDbCircle
 10
146.773835
 20
-74.200025
 30
0.0
 40
1.049971000297626
100
AcDbArc
 50
89.99841758000045
 51
179.998635777107
  0
LINE
  5
231
330
1F
100
AcDbEntity
  8
0
100
AcDbLine
 10
177.573864
 20
-73.14999999999999
 30
0.0
 11
146.773864
 21
-73.14999999999999
 31
0.0
  0
LINE
  5
233
330
1F
100
AcDbEntity
  8
0
100
AcDbLine
 10
178.623864
 20
-78.1999999999551
 30
0.0
 11
178.623864
 21
-74.2
 31
0.0
  0
ARC
  5
234
330
1F
100
AcDbEntity
  8
0
100
AcDbCircle
 10
177.573835
 20
-74.200025
 30
0.0
 40
1.050029000297634
100
AcDbArc
 50
0.0013641475519847
 51
89.99841758281514
  0
ARC
  5
238
330
1F
100
AcDbEntity
  8
0
100
AcDbCircle
 10
146.773935
 20
-78.199925
 30
0.0
 40
1.050071002678407
100
AcDbArc
 50
180.0040922788758
 51
269.9961259906781
  0
ARC
  5
239
330
1F
100
AcDbEntity
  8
0
100
AcDbCircle
 10
89.123935
 20
-78.199925
 30
0.0
 40
1.050075002400306
100
AcDbArc
 50
180.0040922799446
 51
269.9961259900004
  0
LINE
  5
240
330
1F
100
AcDbEntity
  8
0
100
AcDbLine
 10
88.073864
 20
-74.20000000005322
 30
0.0
 11
88.0738600002781
 21
-78.2000000003048
 31
0.0
  0
LINE
  5
241
330
1F
100
AcDbEntity
  8
0
100
AcDbLine
 10
89.12386399998759
 20
-79.25
 30
0.0
 11
119.923864
 21
-79.25
 31
0.0
  0
LWPOLYLINE
  5
246
330
1F
100
AcDbEntity
  8
0
100
AcDbPolyline
 90
        8
 70
     1
 43
0.0
 10
230.825
 20
-69.7
 10
230.825
 20
-82.70000000000002
 42
0.4142123908030345
 10
231.325
 20
-83.2
 10
244.925
 20
-83.2
 42
0.4142135623730951
 10
245.425
 20
-82.70000000000002
 10
245.425
 20
-69.7
 42
0.4142135623730951
 10
244.925
 20
-69.2
 10
231.325
 20
-69.2
 42
0.4142123908030449
  0
LWPOLYLINE
  5
247
330
1F
100
AcDbEntity
  8
0
100
AcDbPolyline
 90
        8
 70
     1
 43
0.0
 10
-2.537500000000001
 20
-12.55
 10
-2.537500000000001
 20
-25.55
 42
0.4142123908030518
 10
-2.0375
 20
-26.05
 10
11.5625
 20
-26.05
 42
0.4142135623730951
 10
12.0625
 20
-25.55
 10
12.0625
 20
-12.55
 42
0.4142135623730951
 10
11.5625
 20
-12.05
 10
-2.037500000000001
 20
-12.05
 42
0.4142123908030461
  0
LWPOLYLINE
  5
248
330
1F
100
AcDbEntity
  8
0
100
AcDbPolyline
 90
        8
 70
     1
 43
0.0
 10
59.375
 20
-12.55
 10
59.375
 20
-25.55
 42
0.4142123908030554
 10
59.87500000000001
 20
-26.05
 10
73.475
 20
-26.05
 42
0.4142135623730951
 10
73.975
 20
-25.55
 10
73.975
 20
-12.55
 42
0.4142135623730951
 10
73.475
 20
-12.05
 10
59.87500000000001
 20
-12.05
 42
0.4142123908030501
  0
LWPOLYLINE
  5
249
330
1F
100
AcDbEntity
  8
0
100
AcDbPolyline
 90
        8
 70
     1
 43
0.0
 10
87.95
 20
6.5
 10
87.95
 20
-6.5
 42
0.4142123908030521
 10
88.45
 20
-7.000000000000001
 10
102.05
 20
-7.000000000000001
 42
0.4142135623730951
 10
102.55
 20
-6.5
 10
102.55
 20
6.5
 42
0.4142135623730951
 10
102.05
 20
7.000000000000001
 10
88.45
 20
7.000000000000001
 42
0.4142123908030521
  0
LWPOLYLINE
  5
250
330
1F
100
AcDbEntity
  8
0
100
AcDbPolyline
 90
        8
 70
     1
 43
0.0
 10
207.0125
 20
-69.7
 10
207.0125
 20
-82.70000000000002
 42
0.4142123908030345
 10
207.5125
 20
-83.2
 10
221.1125
 20
-83.2
 42
0.4142135623730951
 10
221.6125
 20
-82.70000000000002
 10
221.6125
 20
-69.7
 42
0.4142135623730951
 10
221.1125
 20
-69.2
 10
207.5125
 20
-69.2
 42
0.4142123908030449
  0
LWPOLYLINE
  5
251
330
1F
100
AcDbEntity
  8
0
100
AcDbPolyline
 90
        8
 70
     1
 43
0.0
 10
92.7125
 20
-50.65000000000001
 10
92.7125
 20
-63.65000000000001
 42
0.4142123908030605
 10
93.2125
 20
-64.14999999999999
 10
106.8125
 20
-64.14999999999999
 42
0.4142135623730951
 10
107.3125
 20
-63.65000000000001
 10
107.3125
 20
-50.65000000000001
 42
0.4142135623730951
 10
106.8125
 20
-50.15000000000001
 10
93.2125
 20
-50.15000000000001
 42
0.4142123908030605
  0
LWPOLYLINE
  5
252
330
1F
100
AcDbEntity
  8
0
100
AcDbPolyline
 90
        8
 70
     1
 43
0.0
 10
192.725
 20
-12.55
 10
192.725
 20
-25.55
 42
0.4142123908030658
 10
193.225
 20
-26.05
 10
206.825
 20
-26.05
 42
0.4142135623730951
 10
207.325
 20
-25.55
 10
207.325
 20
-12.55
 42
0.4142135623730951
 10
206.825
 20
-12.05
 10
193.225
 20
-12.05
 42
0.4142123908030605
  0
LWPOLYLINE
  5
253
330
1F
100
AcDbEntity
  8
0
100
AcDbPolyline
 90
        8
 70
     1
 43
0.0
 10
254.6375
 20
-69.7
 10
254.6375
 20
-82.70000000000002
 42
0.4142123908030554
 10
255.1375
 20
-83.2
 10
268.7375
 20
-83.2
 42
0.4142135623730951
 10
269.2375
 20
-82.70000000000002
 10
269.2375
 20
-69.7
 42
0.4142135623730951
 10
268.7375
 20
-69.2
 10
255.1375
 20
-69.2
 42
0.4142123908030658
  0
LWPOLYLINE
  5
254
330
1F
100
AcDbEntity
  8
0
100
AcDbPolyline
 90
        8
 70
     1
 43
0.0
 10
69.3934
 20
-82.64999999999999
 10
69.3934
 20
-69.75
 42
-0.4142123908030554
 10
69.8934
 20
-69.25
 10
82.49340000000001
 20
-69.25000000000001
 42
-0.4142123908030554
 10
82.9934
 20
-69.75
 10
82.99340000000001
 20
-82.64999999999999
 42
-0.4142123908030554
 10
82.49340000000001
 20
-83.14999999999999
 10
69.8934
 20
-83.14999999999998
 42
-0.4142123908030554
  0
LWPOLYLINE
  5
255
330
1F
100
AcDbEntity
  8
0
100
AcDbPolyline
 90
        8
 70
     1
 43
0.0
 10
183.7
 20
-82.64999999999999
 10
183.7
 20
-69.75
 42
-0.4142135623730951
 10
184.2
 20
-69.25
 10
196.8
 20
-69.25
 42
-0.4142135623730951
 10
197.3
 20
-69.75
 10
197.3
 20
-82.64999999999999
 42
-0.4142135623730951
 10
196.8
 20
-83.14999999999999
 10
184.2
 20
-83.14999999999996
 42
-0.4142135623730951
  0
LWPOLYLINE
  5
256
330
1F
100
AcDbEntity
  8
0
100
AcDbPolyline
 90
        8
 70
     1
 43
0.0
 10
83.1875
 20
-31.6
 10
83.1875
 20
-44.6
 42
0.4142123908030501
 10
83.6875
 20
-45.10000000000001
 10
97.2875
 20
-45.10000000000001
 42
0.4142135623730951
 10
97.78750000000001
 20
-44.6
 10
97.78750000000001
 20
-31.6
 42
0.4142135623730951
 10
97.2875
 20
-31.1
 10
83.6875
 20
-31.1
 42
0.4142123908030527
  0
LWPOLYLINE
  5
257
330
1F
100
AcDbEntity
  8
0
100
AcDbPolyline
 90
        8
 70
     1
 43
0.0
 10
130.8125
 20
-50.65000000000001
 10
130.8125
 20
-63.65000000000001
 42
0.4142123908030501
 10
131.3125
 20
-64.14999999999999
 10
144.9125
 20
-64.14999999999999
 42
0.4142135623730951
 10
145.4125
 20
-63.65000000000001
 10
145.4125
 20
-50.65000000000001
 42
0.4142135623730951
 10
144.9125
 20
-50.15000000000001
 10
131.3125
 20
-50.15000000000001
 42
0.4142123908030501
  0
LWPOLYLINE
  5
258
330
1F
100
AcDbEntity
  8
0
100
AcDbPolyline
 90
        8
 70
     1
 43
0.0
 10
54.6125
 20
-50.65000000000001
 10
54.6125
 20
-63.65000000000001
 42
0.4142123908030501
 10
55.1125
 20
-64.14999999999999
 10
68.7125
 20
-64.14999999999999
 42
0.4142135623730951
 10
69.21249999999999
 20
-63.65000000000001
 10
69.21249999999999
 20
-50.65000000000001
 42
0.4142135623730951
 10
68.7125
 20
-50.15000000000001
 10
55.1125
 20
-50.15000000000001
 42
0.4142123908030501
  0
LWPOLYLINE
  5
259
330
1F
100
AcDbEntity
  8
0
100
AcDbPolyline
 90
        8
 70
     1
 43
0.0
 10
126.05
 20
6.5
 10
126.05
 20
-6.5
 42
0.4142123908030521
 10
126.55
 20
-7.000000000000001
 10
140.15
 20
-7.000000000000001
 42
0.4142135623730951
 10
140.65
 20
-6.5
 10
140.65
 20
6.5
 42
0.4142135623730951
 10
140.15
 20
7.000000000000001
 10
126.55
 20
7.000000000000001
 42
0.4142123908030521
  0
LWPOLYLINE
  5
260
330
1F
100
AcDbEntity
  8
0
100
AcDbPolyline
 90
        8
 70
     1
 43
0.0
 10
6.800000000000001
 20
-7.000000000000001
 42
0.4142135623730951
 10
7.300000000000001
 20
-6.5
 10
7.300000000000001
 20
6.5
 42
0.4142135623730951
 10
6.800000000000001
 20
7.000000000000001
 10
-6.799999999988394
 20
7.000000000000001
 42
0.4142123908166444
 10
-7.3
 20
6.499999999988396
 10
-7.3
 20
-6.499999999988395
 42
0.4142123908166444
 10
-6.799999999988396
 20
-7.000000000000001
  0
LWPOLYLINE
  5
261
330
1F
100
AcDbEntity
  8
0
100
AcDbPolyline
 90
        8
 70
     1
 43
0.0
 10
30.8
 20
6.5
 10
30.8
 20
-6.5
 42
0.4142123908030443
 10
31.29999999999999
 20
-7.000000000000001
 10
44.90000000000001
 20
-7.000000000000001
 42
0.4142135623730951
 10
45.4
 20
-6.5
 10
45.4
 20
6.5
 42
0.4142135623730951
 10
44.90000000000001
 20
7.000000000000001
 10
31.29999999999999
 20
7.000000000000001
 42
0.4142123908030443
  0
LWPOLYLINE
  5
262
330
1F
100
AcDbEntity
  8
0
100
AcDbPolyline
 90
        8
 70
     1
 43
0.0
 10
26.0375
 20
-31.6
 10
26.0375
 20
-44.6
 42
0.4142123908030476
 10
26.5375
 20
-45.10000000000001
 10
40.1375
 20
-45.10000000000001
 42
0.4142135623730951
 10
40.6375
 20
-44.6
 10
40.6375
 20
-31.6
 42
0.4142135623730951
 10
40.1375
 20
-31.1
 10
26.5375
 20
-31.1
 42
0.4142123908030501
  0
LWPOLYLINE
  5
263
330
1F
100
AcDbEntity
  8
0
100
AcDbPolyline
 90
        8
 70
     1
 43
0.0
 10
111.7625
 20
-50.65000000000001
 10
111.7625
 20
-63.65000000000001
 42
0.4142123908030397
 10
112.2625
 20
-64.14999999999999
 10
125.8625
 20
-64.14999999999999
 42
0.4142135623730951
 10
126.3625
 20
-63.65000000000001
 10
126.3625
 20
-50.65000000000001
 42
0.4142135623730951
 10
125.8625
 20
-50.15000000000001
 10
112.2625
 20
-50.15000000000001
 42
0.4142123908030397
  0
LWPOLYLINE
  5
264
330
1F
100
AcDbEntity
  8
0
100
AcDbPolyline
 90
        8
 70
     1
 43
0.0
 10
187.9625
 20
-50.65000000000001
 10
187.9625
 20
-63.65000000000001
 42
0.4142123908030189
 10
188.4625
 20
-64.14999999999999
 10
202.0625
 20
-64.14999999999999
 42
0.4142135623730951
 10
202.5625
 20
-63.65000000000001
 10
202.5625
 20
-50.65000000000001
 42
0.4142135623730951
 10
202.0625
 20
-50.15000000000001
 10
188.4625
 20
-50.15000000000001
 42
0.4142123908030189
  0
LWPOLYLINE
  5
265
330
1F
100
AcDbEntity
  8
0
100
AcDbPolyline
 90
        8
 70
     1
 43
0.0
 10
230.825
 20
-12.55
 10
230.825
 20
-25.55
 42
0.4142123908030449
 10
231.325
 20
-26.05
 10
244.925
 20
-26.05
 42
0.4142135623730951
 10
245.425
 20
-25.55
 10
245.425
 20
-12.55
 42
0.4142135623730951
 10
244.925
 20
-12.05
 10
231.325
 20
-12.05
 42
0.4142123908030397
  0
LWPOLYLINE
  5
266
330
1F
100
AcDbEntity
  8
0
100
AcDbPolyline
 90
        8
 70
     1
 43
0.0
 10
145.1
 20
6.5
 10
145.1
 20
-6.5
 42
0.4142123908030521
 10
145.6
 20
-7.000000000000001
 10
159.2
 20
-7.000000000000001
 42
0.4142135623730951
 10
159.7
 20
-6.5
 10
159.7
 20
6.5
 42
0.4142135623730951
 10
159.2
 20
7.000000000000001
 10
145.6
 20
7.000000000000001
 42
0.4142123908030521
  0
LWPOLYLINE
  5
267
330
1F
100
AcDbEntity
  8
0
100
AcDbPolyline
 90
        8
 70
     1
 43
0.0
 10
116.525
 20
-12.55
 10
116.525
 20
-25.55
 42
0.4142123908030658
 10
117.025
 20
-26.05
 10
130.625
 20
-26.05
 42
0.4142135623730951
 10
131.125
 20
-25.55
 10
131.125
 20
-12.55
 42
0.4142135623730951
 10
130.625
 20
-12.05
 10
117.025
 20
-12.05
 42
0.4142123908030605
  0
LWPOLYLINE
  5
268
330
1F
100
AcDbEntity
  8
0
100
AcDbPolyline
 90
        8
 70
     1
 43
0.0
 10
40.325
 20
-12.55
 10
40.325
 20
-25.55
 42
0.4142123908030501
 10
40.825
 20
-26.05
 10
54.425
 20
-26.05
 42
0.4142135623730951
 10
54.925
 20
-25.55
 10
54.925
 20
-12.55
 42
0.4142135623730951
 10
54.425
 20
-12.05
 10
40.825
 20
-12.05
 42
0.4142123908030449
  0
LWPOLYLINE
  5
269
330
1F
100
AcDbEntity
  8
0
100
AcDbPolyline
 90
        8
 70
     1
 43
0.0
 10
164.15
 20
6.5
 10
164.15
 20
-6.5
 42
0.4142123908030417
 10
164.65
 20
-7.000000000000001
 10
178.25
 20
-7.000000000000001
 42
0.4142135623730951
 10
178.75
 20
-6.5
 10
178.75
 20
6.5
 42
0.4142135623730951
 10
178.25
 20
7.000000000000001
 10
164.65
 20
7.000000000000001
 42
0.4142123908030417
  0
LWPOLYLINE
  5
270
330
1F
100
AcDbEntity
  8
0
100
AcDbPolyline
 90
        8
 70
     1
 43
0.0
 10
238.79375
 20
-31.625
 10
238.79375
 20
-43.343
 10
241.79375
 20
-45.075
 10
267.79375
 20
-45.075
 10
270.79375
 20
-43.343
 10
270.79375
 20
-31.625
 42
0.4142135623730951
 10
270.29375
 20
-31.125
 10
239.29375
 20
-31.125
 42
0.4142123908030449
  0
LWPOLYLINE
  5
271
330
1F
100
AcDbEntity
  8
0
100
AcDbPolyline
 90
        8
 70
     1
 43
0.0
 10
254.6375
 20
-12.55
 10
254.6375
 20
-25.55
 42
0.4142123908030658
 10
255.1375
 20
-26.05
 10
268.7375
 20
-26.05
 42
0.4142135623730951
 10
269.2375
 20
-25.55
 10
269.2375
 20
-12.55
 42
0.4142135623730951
 10
268.7375
 20
-12.05
 10
255.1375
 20
-12.05
 42
0.4142123908030605
  0
LWPOLYLINE
  5
272
330
1F
100
AcDbEntity
  8
0
100
AcDbPolyline
 90
        8
 70
     1
 43
0.0
 10
-2.537500000000001
 20
-69.7
 10
-2.537500000000001
 20
-82.70000000000002
 42
0.4142123908030413
 10
-2.0375
 20
-83.2
 10
11.5625
 20
-83.2
 42
0.4142135623730951
 10
12.0625
 20
-82.70000000000002
 10
12.0625
 20
-69.7
 42
0.4142135623730951
 10
11.5625
 20
-69.2
 10
-2.037500000000001
 20
-69.2
 42
0.4142123908030513
  0
LWPOLYLINE
  5
273
330
1F
100
AcDbEntity
  8
0
100
AcDbPolyline
 90
        8
 70
     1
 43
0.0
 10
21.275
 20
-69.7
 10
21.275
 20
-82.70000000000002
 42
0.4142123908030397
 10
21.775
 20
-83.2
 10
35.375
 20
-83.2
 42
0.4142135623730951
 10
35.875
 20
-82.70000000000002
 10
35.875
 20
-69.7
 42
0.4142135623730951
 10
35.375
 20
-69.2
 10
21.775
 20
-69.2
 42
0.4142123908030501
  0
LWPOLYLINE
  5
274
330
1F
100
AcDbEntity
  8
0
100
AcDbPolyline
 90
        8
 70
     1
 43
0.0
 10
140.3375
 20
-31.6
 10
140.3375
 20
-44.6
 42
0.4142123908030501
 10
140.8375
 20
-45.10000000000001
 10
154.4375
 20
-45.10000000000001
 42
0.4142135623730951
 10
154.9375
 20
-44.6
 10
154.9375
 20
-31.6
 42
0.4142135623730951
 10
154.4375
 20
-31.1
 10
140.8375
 20
-31.1
 42
0.4142123908030527
  0
LWPOLYLINE
  5
275
330
1F
100
AcDbEntity
  8
0
100
AcDbPolyline
 90
        8
 70
     1
 43
0.0
 10
78.425
 20
-12.55
 10
78.425
 20
-25.55
 42
0.4142123908030554
 10
78.925
 20
-26.05
 10
92.525
 20
-26.05
 42
0.4142135623730951
 10
93.025
 20
-25.55
 10
93.025
 20
-12.55
 42
0.4142135623730951
 10
92.525
 20
-12.05
 10
78.925
 20
-12.05
 42
0.4142123908030501
  0
LWPOLYLINE
  5
276
330
1F
100
AcDbEntity
  8
0
100
AcDbPolyline
 90
        8
 70
     1
 43
0.0
 10
168.9125
 20
-50.65000000000001
 10
168.9125
 20
-63.65000000000001
 42
0.4142123908030397
 10
169.4125
 20
-64.14999999999999
 10
183.0125
 20
-64.14999999999999
 42
0.4142135623730951
 10
183.5125
 20
-63.65000000000001
 10
183.5125
 20
-50.65000000000001
 42
0.4142135623730951
 10
183.0125
 20
-50.15000000000001
 10
169.4125
 20
-50.15000000000001
 42
0.4142123908030397
  0
LWPOLYLINE
  5
277
330
1F
100
AcDbEntity
  8
0
100
AcDbPolyline
 90
        8
 70
     1
 43
0.0
 10
154.625
 20
-12.55
 10
154.625
 20
-25.55
 42
0.4142123908030554
 10
155.125
 20
-26.05
 10
168.725
 20
-26.05
 42
0.4142135623730951
 10
169.225
 20
-25.55
 10
169.225
 20
-12.55
 42
0.4142135623730951
 10
168.725
 20
-12.05
 10
155.125
 20
-12.05
 42
0.4142123908030501
  0
LWPOLYLINE
  5
278
330
1F
100
AcDbEntity
  8
0
100
AcDbPolyline
 90
        8
 70
     1
 43
0.0
 10
221.3
 20
6.5
 10
221.3
 20
-6.5
 42
0.4142123908030625
 10
221.8
 20
-7.000000000000001
 10
235.3999999999999
 20
-7.000000000000001
 42
0.4142135623730951
 10
235.9
 20
-6.5
 10
235.9
 20
6.5
 42
0.4142135623730951
 10
235.3999999999999
 20
7.000000000000001
 10
221.8
 20
7.000000000000001
 42
0.4142123908030625
  0
LWPOLYLINE
  5
279
330
1F
100
AcDbEntity
  8
0
100
AcDbPolyline
 90
        8
 70
     1
 43
0.0
 10
216.5375
 20
-31.6
 10
216.5375
 20
-44.6
 42
0.4142123908030397
 10
217.0375
 20
-45.10000000000001
 10
230.6375
 20
-45.10000000000001
 42
0.4142135623730951
 10
231.1375
 20
-44.6
 10
231.1375
 20
-31.6
 42
0.4142135623730951
 10
230.6375
 20
-31.1
 10
217.0375
 20
-31.1
 42
0.4142123908030423
  0
LWPOLYLINE
  5
280
330
1F
100
AcDbEntity
  8
0
100
AcDbPolyline
 90
        8
 70
     1
 43
0.0
 10
183.2
 20
6.5
 10
183.2
 20
-6.5
 42
0.4142123908030625
 10
183.7
 20
-7.000000000000001
 10
197.3
 20
-7.000000000000001
 42
0.4142135623730951
 10
197.8
 20
-6.5
 10
197.8
 20
6.5
 42
0.4142135623730951
 10
197.3
 20
7.000000000000001
 10
183.7
 20
7.000000000000001
 42
0.4142123908030625
  0
LWPOLYLINE
  5
281
330
1F
100
AcDbEntity
  8
0
100
AcDbPolyline
 90
        8
 70
     1
 43
0.0
 10
-4.09375
 20
-50.675
 10
-4.09375
 20
-62.393
 10
-1.09375
 20
-64.125
 10
24.90625
 20
-64.125
 10
27.90625
 20
-62.393
 10
27.90625
 20
-50.675
 42
0.4142135623730951
 10
27.40625
 20
-50.175
 10
-3.59375
 20
-50.175
 42
0.4142123908030466
  0
LWPOLYLINE
  5
282
330
1F
100
AcDbEntity
  8
0
100
AcDbPolyline
 90
        8
 70
     1
 43
0.0
 10
178.4375
 20
-31.6
 10
178.4375
 20
-44.6
 42
0.4142123908030397
 10
178.9375
 20
-45.10000000000001
 10
192.5375
 20
-45.10000000000001
 42
0.4142135623730951
 10
193.0375
 20
-44.6
 10
193.0375
 20
-31.6
 42
0.4142135623730951
 10
192.5375
 20
-31.1
 10
178.9375
 20
-31.1
 42
0.4142123908030423
  0
LWPOLYLINE
  5
283
330
1F
100
AcDbEntity
  8
0
100
AcDbPolyline
 90
        8
 70
     1
 43
0.0
 10
207.0125
 20
-50.65000000000001
 10
207.0125
 20
-63.65000000000001
 42
0.4142123908030397
 10
207.5125
 20
-64.14999999999999
 10
221.1125
 20
-64.14999999999999
 42
0.4142135623730951
 10
221.6125
 20
-63.65000000000001
 10
221.6125
 20
-50.65000000000001
 42
0.4142135623730951
 10
221.1125
 20
-50.15000000000001
 10
207.5125
 20
-50.15000000000001
 42
0.4142123908030397
  0
LWPOLYLINE
  5
284
330
1F
100
AcDbEntity
  8
0
100
AcDbPolyline
 90
        8
 70
     1
 43
0.0
 10
68.89999999999999
 20
6.5
 10
68.89999999999999
 20
-6.5
 42
0.4142123908030417
 10
69.39999999999999
 20
-7.000000000000001
 10
83.0
 20
-7.000000000000001
 42
0.4142135623730951
 10
83.5
 20
-6.5
 10
83.5
 20
6.5
 42
0.4142135623730951
 10
83.0
 20
7.000000000000001
 10
69.39999999999999
 20
7.000000000000001
 42
0.4142123908030417
  0
LWPOLYLINE
  5
285
330
1F
100
AcDbEntity
  8
0
100
AcDbPolyline
 90
        8
 70
     1
 43
0.0
 10
102.2375
 20
-31.6
 10
102.2375
 20
-44.6
 42
0.4142123908030397
 10
102.7375
 20
-45.10000000000001
 10
116.3375
 20
-45.10000000000001
 42
0.4142135623730951
 10
116.8375
 20
-44.6
 10
116.8375
 20
-31.6
 42
0.4142135623730951
 10
116.3375
 20
-31.1
 10
102.7375
 20
-31.1
 42
0.4142123908030423
  0
LWPOLYLINE
  5
286
330
1F
100
AcDbEntity
  8
0
100
AcDbPolyline
 90
        8
 70
     1
 43
0.0
 10
135.575
 20
-12.55
 10
135.575
 20
-25.55
 42
0.4142123908030345
 10
136.075
 20
-26.05
 10
149.675
 20
-26.05
 42
0.4142135623730951
 10
150.175
 20
-25.55
 10
150.175
 20
-12.55
 42
0.4142135623730951
 10
149.675
 20
-12.05
 10
136.075
 20
-12.05
 42
0.4142123908030293
  0
LWPOLYLINE
  5
287
330
1F
100
AcDbEntity
  8
0
100
AcDbPolyline
 90
        8
 70
     1
 43
0.0
 10
45.0875
 20
-31.6
 10
45.0875
 20
-44.6
 42
0.4142123908030449
 10
45.5875
 20
-45.10000000000001
 10
59.1875
 20
-45.10000000000001
 42
0.4142135623730951
 10
59.6875
 20
-44.6
 10
59.6875
 20
-31.6
 42
0.4142135623730951
 10
59.1875
 20
-31.1
 10
45.5875
 20
-31.1
 42
0.4142123908030476
  0
LWPOLYLINE
  5
288
330
1F
100
AcDbEntity
  8
0
100
AcDbPolyline
 90
        8
 70
     1
 43
0.0
 10
173.675
 20
-12.55
 10
173.675
 20
-25.55
 42
0.4142123908030658
 10
174.175
 20
-26.05
 10
187.775
 20
-26.05
 42
0.4142135623730951
 10
188.275
 20
-25.55
 10
188.275
 20
-12.55
 42
0.4142135623730951
 10
187.775
 20
-12.05
 10
174.175
 20
-12.05
 42
0.4142123908030605
  0
LWPOLYLINE
  5
289
330
1F
100
AcDbEntity
  8
0
100
AcDbPolyline
 90
        8
 70
     1
 43
0.0
 10
64.1375
 20
-31.6
 10
64.1375
 20
-44.6
 42
0.4142123908030501
 10
64.63750000000002
 20
-45.10000000000001
 10
78.23750000000001
 20
-45.10000000000001
 42
0.4142135623730951
 10
78.7375
 20
-44.6
 10
78.7375
 20
-31.6
 42
0.4142135623730951
 10
78.23750000000001
 20
-31.1
 10
64.63750000000002
 20
-31.1
 42
0.4142123908030527
  0
LWPOLYLINE
  5
290
330
1F
100
AcDbEntity
  8
0
100
AcDbPolyline
 90
        8
 70
     1
 43
0.0
 10
49.84999999999999
 20
6.5
 10
49.84999999999999
 20
-6.5
 42
0.4142123908030469
 10
50.35
 20
-7.000000000000001
 10
63.95
 20
-7.000000000000001
 42
0.4142135623730951
 10
64.45
 20
-6.5
 10
64.45
 20
6.5
 42
0.4142135623730951
 10
63.95
 20
7.000000000000001
 10
50.35
 20
7.000000000000001
 42
0.4142123908030469
  0
LWPOLYLINE
  5
291
330
1F
100
AcDbEntity
  8
0
100
AcDbPolyline
 90
        8
 70
     1
 43
0.0
 10
35.5625
 20
-50.65000000000001
 10
35.5625
 20
-63.65000000000001
 42
0.4142123908030476
 10
36.0625
 20
-64.14999999999999
 10
49.66249999999999
 20
-64.14999999999999
 42
0.4142135623730951
 10
50.16249999999999
 20
-63.65000000000001
 10
50.16249999999999
 20
-50.65000000000001
 42
0.4142135623730951
 10
49.66249999999999
 20
-50.15000000000001
 10
36.0625
 20
-50.15000000000001
 42
0.4142123908030476
  0
LWPOLYLINE
  5
292
330
1F
100
AcDbEntity
  8
0
100
AcDbPolyline
 90
        8
 70
     1
 43
0.0
 10
97.47500000000001
 20
-12.55
 10
97.47500000000001
 20
-25.55
 42
0.4142123908030449
 10
97.975
 20
-26.05
 10
111.575
 20
-26.05
 42
0.4142135623730951
 10
112.075
 20
-25.55
 10
112.075
 20
-12.55
 42
0.4142135623730951
 10
111.575
 20
-12.05
 10
97.975
 20
-12.05
 42
0.4142123908030397
  0
LWPOLYLINE
  5
293
330
1F
100
AcDbEntity
  8
0
100
AcDbPolyline
 90
        8
 70
     1
 43
0.0
 10
-4.91865
 20
-31.6
 10
-4.91865
 20
-44.6
 42
0.4142123908030466
 10
-4.41865
 20
-45.10000000000001
 10
13.94375
 20
-45.10000000000001
 42
0.4142135623730951
 10
14.44375
 20
-44.6
 10
14.44375
 20
-31.6
 42
0.4142135623730951
 10
13.94375
 20
-31.1
 10
-4.41865
 20
-31.1
 42
0.4142123908030491
  0
LWPOLYLINE
  5
294
330
1F
100
AcDbEntity
  8
0
100
AcDbPolyline
 90
        8
 70
     1
 43
0.0
 10
126.05
 20
-69.7
 10
126.05
 20
-82.70000000000002
 42
0.4142123908030449
 10
126.55
 20
-83.2
 10
140.15
 20
-83.2
 42
0.4142135623730951
 10
140.65
 20
-82.70000000000002
 10
140.65
 20
-69.7
 42
0.4142135623730951
 10
140.15
 20
-69.2
 10
126.55
 20
-69.2
 42
0.4142123908030554
  0
LWPOLYLINE
  5
295
330
1F
100
AcDbEntity
  8
0
100
AcDbPolyline
 90
        8
 70
     1
 43
0.0
 10
211.775
 20
-12.55
 10
211.775
 20
-25.55
 42
0.4142123908030449
 10
212.275
 20
-26.05
 10
225.875
 20
-26.05
 42
0.4142135623730951
 10
226.375
 20
-25.55
 10
226.375
 20
-12.55
 42
0.4142135623730951
 10
225.875
 20
-12.05
 10
212.275
 20
-12.05
 42
0.4142123908030397
  0
LWPOLYLINE
  5
296
330
1F
100
AcDbEntity
  8
0
100
AcDbPolyline
 90
        8
 70
     1
 43
0.0
 10
202.25
 20
6.5
 10
202.25
 20
-6.5
 42
0.4142123908030625
 10
202.75
 20
-7.000000000000001
 10
216.35
 20
-7.000000000000001
 42
0.4142135623730951
 10
216.85
 20
-6.5
 10
216.85
 20
6.5
 42
0.4142135623730951
 10
216.35
 20
7.000000000000001
 10
202.75
 20
7.000000000000001
 42
0.4142123908030625
  0
LWPOLYLINE
  5
297
330
1F
100
AcDbEntity
  8
0
100
AcDbPolyline
 90
        8
 70
     1
 43
0.0
 10
25.85
 20
-7.000000000000001
 42
0.4142135623730951
 10
26.35
 20
-6.5
 10
26.35
 20
6.5
 42
0.4142135623730951
 10
25.85
 20
7.000000000000001
 10
12.2500000000116
 20
7.000000000000001
 42
0.4142123908166444
 10
11.75
 20
6.499999999988396
 10
11.75
 20
-6.499999999988395
 42
0.4142123908166451
 10
12.2500000000116
 20
-7.000000000000001
  0
LWPOLYLINE
  5
298
330
1F
100
AcDbEntity
  8
0
100
AcDbPolyline
 90
        8
 70
     1
 43
0.0
 10
149.8625
 20
-50.65000000000001
 10
149.8625
 20
-63.65000000000001
 42
0.4142123908030501
 10
150.3625
 20
-64.14999999999999
 10
163.9625
 20
-64.14999999999999
 42
0.4142135623730951
 10
164.4625
 20
-63.65000000000001
 10
164.4625
 20
-50.65000000000001
 42
0.4142135623730951
 10
163.9625
 20
-50.15000000000001
 10
150.3625
 20
-50.15000000000001
 42
0.4142123908030501
  0
LWPOLYLINE
  5
299
330
1F
100
AcDbEntity
  8
0
100
AcDbPolyline
 90
        8
 70
     1
 43
0.0
 10
21.275
 20
-12.55
 10
21.275
 20
-25.55
 42
0.4142123908030501
 10
21.775
 20
-26.05
 10
35.375
 20
-26.05
 42
0.4142135623730951
 10
35.875
 20
-25.55
 10
35.875
 20
-12.55
 42
0.4142135623730951
 10
35.375
 20
-12.05
 10
21.775
 20
-12.05
 42
0.4142123908030449
  0
LWPOLYLINE
  5
300
330
1F
100
AcDbEntity
  8
0
100
AcDbPolyline
 90
        8
 70
     1
 43
0.0
 10
45.0875
 20
-69.7
 10
45.0875
 20
-82.70000000000002
 42
0.4142123908030397
 10
45.5875
 20
-83.2
 10
59.1875
 20
-83.2
 42
0.4142135623730951
 10
59.6875
 20
-82.70000000000002
 10
59.6875
 20
-69.7
 42
0.4142135623730951
 10
59.1875
 20
-69.2
 10
45.5875
 20
-69.2
 42
0.4142123908030501
  0
LWPOLYLINE
  5
301
330
1F
100
AcDbEntity
  8
0
100
AcDbPolyline
 90
        8
 70
     1
 43
0.0
 10
197.4875
 20
-31.6
 10
197.4875
 20
-44.6
 42
0.4142123908030397
 10
197.9875
 20
-45.10000000000001
 10
211.5875
 20
-45.10000000000001
 42
0.4142135623730951
 10
212.0875
 20
-44.6
 10
212.0875
 20
-31.6
 42
0.4142135623730951
 10
211.5875
 20
-31.1
 10
197.9875
 20
-31.1
 42
0.4142123908030423
  0
LWPOLYLINE
  5
302
330
1F
100
AcDbEntity
  8
0
100
AcDbPolyline
 90
        8
 70
     1
 43
0.0
 10
73.6625
 20
-50.65000000000001
 10
73.6625
 20
-63.65000000000001
 42
0.4142123908030501
 10
74.1625
 20
-64.14999999999999
 10
87.76250000000002
 20
-64.14999999999999
 42
0.4142135623730951
 10
88.2625
 20
-63.65000000000001
 10
88.2625
 20
-50.65000000000001
 42
0.4142135623730951
 10
87.76250000000002
 20
-50.15000000000001
 10
74.1625
 20
-50.15000000000001
 42
0.4142123908030501
  0
LWPOLYLINE
  5
303
330
1F
100
AcDbEntity
  8
0
100
AcDbPolyline
 90
        8
 70
     1
 43
0.0
 10
107.0
 20
6.5
 10
107.0
 20
-6.5
 42
0.4142123908030417
 10
107.5
 20
-7.000000000000001
 10
121.1
 20
-7.000000000000001
 42
0.4142135623730951
 10
121.6
 20
-6.5
 10
121.6
 20
6.5
 42
0.4142135623730951
 10
121.1
 20
7.000000000000001
 10
107.5
 20
7.000000000000001
 42
0.4142123908030417
  0
LWPOLYLINE
  5
304
330
1F
100
AcDbEntity
  8
0
100
AcDbPolyline
 90
        8
 70
     1
 43
0.0
 10
159.3875
 20
-31.6
 10
159.3875
 20
-44.6
 42
0.4142123908030501
 10
159.8875
 20
-45.10000000000001
 10
173.4875
 20
-45.10000000000001
 42
0.4142135623730951
 10
173.9875
 20
-44.6
 10
173.9875
 20
-31.6
 42
0.4142135623730951
 10
173.4875
 20
-31.1
 10
159.8875
 20
-31.1
 42
0.4142123908030527
  0
LWPOLYLINE
  5
305
330
1F
100
AcDbEntity
  8
0
100
AcDbPolyline
 90
        8
 70
     1
 43
0.0
 10
121.2875
 20
-31.6
 10
121.2875
 20
-44.6
 42
0.4142123908030397
 10
121.7875
 20
-45.10000000000001
 10
135.3875
 20
-45.10000000000001
 42
0.4142135623730951
 10
135.8875
 20
-44.6
 10
135.8875
 20
-31.6
 42
0.4142135623730951
 10
135.3875
 20
-31.1
 10
121.7875
 20
-31.1
 42
0.4142123908030423
  0
LWPOLYLINE
  5
1004A
330
1F
100
AcDbEntity
  8
0
100
AcDbPolyline
 90
        8
 70
     1
 43
0.0
 10
241.175
 20
6.474949999999997
 10
241.175
 20
-5.24305
 10
244.175
 20
-6.97505
 10
270.175
 20
-6.97505
 10
273.175
 20
-5.24305
 10
273.175
 20
6.474949999999997
 42
0.4142135623730951
 10
272.675
 20
6.974949999999995
 10
241.675
 20
6.974949999999995
 42
0.4142123908030632
  0
LWPOLYLINE
  5
1004C
330
1F
100
AcDbEntity
  8
0
100
AcDbPolyline
 90
        8
 70
     1
 43
0.0
 10
259.3999999999999
 20
-50.65000000000001
 10
259.3999999999999
 20
-63.65000000000001
 42
0.4142123908030189
 10
259.9
 20
-64.14999999999999
 10
273.5
 20
-64.14999999999999
 42
0.4142135623730951
 10
274.0
 20
-63.65000000000001
 10
274.0
 20
-50.65000000000001
 42
0.4142135623730951
 10
273.5
 20
-50.15000000000001
 10
259.9
 20
-50.15000000000001
 42
0.4142123908030189
  0
LWPOLYLINE
  5
1004D
330
1F
100
AcDbEntity
  8
0
100
AcDbPolyline
 90
        8
 70
     1
 43
0.0
 10
233.20625
 20
-50.65000000000001
 10
233.20625
 20
-63.65000000000001
 42
0.4142123908030605
 10
233.70625
 20
-64.14999999999999
 10
247.30625
 20
-64.14999999999999
 42
0.4142135623730951
 10
247.80625
 20
-63.65000000000001
 10
247.80625
 20
-50.65000000000001
 42
0.4142135623730951
 10
247.30625
 20
-50.15000000000001
 10
233.70625
 20
-50.15000000000001
 42
0.4142123908030605
  0
CIRCLE
  5
10052
330
1F
100
AcDbEntity
  8
0
100
AcDbCircle
 10
195.262464
 20
-38.10000000000001
 30
0.0
 40
1.325
  0
CIRCLE
  5
10053
330
1F
100
AcDbEntity
  8
0
100
AcDbCircle
 10
195.262464
 20
-38.10000000000001
 30
0.0
 40
1.775
  0
CIRCLE
  5
10054
330
1F
100
AcDbEntity
  8
0
100
AcDbCircle
 10
-4.493749999999999
 20
-64.35
 30
0.0
 40
1.325
  0
CIRCLE
  5
10055
330
1F
100
AcDbEntity
  8
0
100
AcDbCircle
 10
-4.493749999999999
 20
-64.35
 30
0.0
 40
1.775
  0
CIRCLE
  5
10056
330
1F
100
AcDbEntity
  8
0
100
AcDbCircle
 10
40.48125
 20
-76.20000000000002
 30
0.0
 40
1.325
  0
CIRCLE
  5
10057
330
1F
100
AcDbEntity
  8
0
100
AcDbCircle
 10
40.48125
 20
-76.20000000000002
 30
0.0
 40
1.775
  0
CIRCLE
  5
10058
330
1F
100
AcDbEntity
  8
0
100
AcDbCircle
 10
16.66875
 20
-19.05
 30
0.0
 40
1.325
  0
CIRCLE
  5
10059
330
1F
100
AcDbEntity
  8
0
100
AcDbCircle
 10
16.66875
 20
-19.05
 30
0.0
 40
1.775
  0
CIRCLE
  5
1005A
330
1F
100
AcDbEntity
  8
0
100
AcDbCircle
 10
66.67500000000001
 20
0.0
 30
0.0
 40
1.325
  0
CIRCLE
  5
1005B
330
1F
100
AcDbEntity
  8
0
100
AcDbCircle
 10
66.67500000000001
 20
0.0
 30
0.0
 40
1.775
  0
CIRCLE
  5
1005C
330
1F
100
AcDbEntity
  8
0
100
AcDbCircle
 10
-7.14375
 20
-38.10000000000001
 30
0.0
 40
1.325
  0
CIRCLE
  5
1005D
330
1F
100
AcDbEntity
  8
0
100
AcDbCircle
 10
-7.14375
 20
-38.10000000000001
 30
0.0
 40
1.775
  0
CIRCLE
  5
1005E
330
1F
100
AcDbEntity
  8
0
100
AcDbCircle
 10
202.40625
 20
-76.20000000000002
 30
0.0
 40
1.325
  0
CIRCLE
  5
1005F
330
1F
100
AcDbEntity
  8
0
100
AcDbCircle
 10
202.40625
 20
-76.20000000000002
 30
0.0
 40
1.775
  0
CIRCLE
  5
10060
330
1F
100
AcDbEntity
  8
0
100
AcDbCircle
 10
90.4875
 20
-57.15
 30
0.0
 40
1.325
  0
CIRCLE
  5
10061
330
1F
100
AcDbEntity
  8
0
100
AcDbCircle
 10
90.4875
 20
-57.15
 30
0.0
 40
1.775
  0
CIRCLE
  5
10062
330
1F
100
AcDbEntity
  8
0
100
AcDbCircle
 10
142.875
 20
0.0
 30
0.0
 40
1.325
  0
CIRCLE
  5
10063
330
1F
100
AcDbEntity
  8
0
100
AcDbCircle
 10
142.875
 20
0.0
 30
0.0
 40
1.775
  0
CIRCLE
  5
10064
330
1F
100
AcDbEntity
  8
0
100
AcDbCircle
 10
33.33750000000001
 20
-57.15
 30
0.0
 40
1.325
  0
CIRCLE
  5
10065
330
1F
100
AcDbEntity
  8
0
100
AcDbCircle
 10
33.33750000000001
 20
-57.15
 30
0.0
 40
1.775
  0
CIRCLE
  5
10066
330
1F
100
AcDbEntity
  8
0
100
AcDbCircle
 10
123.825
 20
-76.20000000000002
 30
0.0
 40
1.325
  0
CIRCLE
  5
10067
330
1F
100
AcDbEntity
  8
0
100
AcDbCircle
 10
123.825
 20
-76.20000000000002
 30
0.0
 40
1.775
  0
CIRCLE
  5
10068
330
1F
100
AcDbEntity
  8
0
100
AcDbCircle
 10
226.21875
 20
-76.20000000000002
 30
0.0
 40
1.325
  0
CIRCLE
  5
10069
330
1F
100
AcDbEntity
  8
0
100
AcDbCircle
 10
226.21875
 20
-76.20000000000002
 30
0.0
 40
1.775
  0
CIRCLE
  5
1006A
330
1F
100
AcDbEntity
  8
0
100
AcDbCircle
 10
166.687464
 20
-57.15
 30
0.0
 40
1.325
  0
CIRCLE
  5
1006B
330
1F
100
AcDbEntity
  8
0
100
AcDbCircle
 10
166.687464
 20
-57.15
 30
0.0
 40
1.775
  0
CIRCLE
  5
1006C
330
1F
100
AcDbEntity
  8
0
100
AcDbCircle
 10
250.03125
 20
-76.20000000000002
 30
0.0
 40
1.325
  0
CIRCLE
  5
1006D
330
1F
100
AcDbEntity
  8
0
100
AcDbCircle
 10
250.03125
 20
-76.20000000000002
 30
0.0
 40
1.775
  0
CIRCLE
  5
1006E
330
1F
100
AcDbEntity
  8
0
100
AcDbCircle
 10
142.875
 20
-76.20000000000002
 30
0.0
 40
1.325
  0
CIRCLE
  5
1006F
330
1F
100
AcDbEntity
  8
0
100
AcDbCircle
 10
142.875
 20
-76.20000000000002
 30
0.0
 40
1.775
  0
CIRCLE
  5
10070
330
1F
100
AcDbEntity
  8
0
100
AcDbCircle
 10
171.449999
 20
-19.05
 30
0.0
 40
1.325
  0
CIRCLE
  5
10071
330
1F
100
AcDbEntity
  8
0
100
AcDbCircle
 10
171.449999
 20
-19.05
 30
0.0
 40
1.775
  0
CIRCLE
  5
10072
330
1F
100
AcDbEntity
  8
0
100
AcDbCircle
 10
16.66875
 20
-76.20000000000002
 30
0.0
 40
1.325
  0
CIRCLE
  5
10073
330
1F
100
AcDbEntity
  8
0
100
AcDbCircle
 10
16.66875
 20
-76.20000000000002
 30
0.0
 40
1.775
  0
CIRCLE
  5
10074
330
1F
100
AcDbEntity
  8
0
100
AcDbCircle
 10
9.523864
 20
0.0
 30
0.0
 40
1.325
  0
CIRCLE
  5
10075
330
1F
100
AcDbEntity
  8
0
100
AcDbCircle
 10
9.523864
 20
0.0
 30
0.0
 40
1.775
  0
CIRCLE
  5
10076
330
1F
100
AcDbEntity
  8
0
100
AcDbCircle
 10
42.8625
 20
-38.10000000000001
 30
0.0
 40
1.325
  0
CIRCLE
  5
10077
330
1F
100
AcDbEntity
  8
0
100
AcDbCircle
 10
42.8625
 20
-38.10000000000001
 30
0.0
 40
1.775
  0
CIRCLE
  5
10078
330
1F
100
AcDbEntity
  8
0
100
AcDbCircle
 10
223.837464
 20
-57.15
 30
0.0
 40
1.325
  0
CIRCLE
  5
10079
330
1F
100
AcDbEntity
  8
0
100
AcDbCircle
 10
223.837464
 20
-57.15
 30
0.0
 40
1.775
  0
CIRCLE
  5
1007A
330
1F
100
AcDbEntity
  8
0
100
AcDbCircle
 10
138.112464
 20
-38.10000000000001
 30
0.0
 40
1.325
  0
CIRCLE
  5
1007B
330
1F
100
AcDbEntity
  8
0
100
AcDbCircle
 10
138.112464
 20
-38.10000000000001
 30
0.0
 40
1.775
  0
CIRCLE
  5
1007C
330
1F
100
AcDbEntity
  8
0
100
AcDbCircle
 10
95.25
 20
-19.05
 30
0.0
 40
1.325
  0
CIRCLE
  5
1007D
330
1F
100
AcDbEntity
  8
0
100
AcDbCircle
 10
95.25
 20
-19.05
 30
0.0
 40
1.775
  0
CIRCLE
  5
1007E
330
1F
100
AcDbEntity
  8
0
100
AcDbCircle
 10
64.29375
 20
-76.20000000000002
 30
0.0
 40
1.325
  0
CIRCLE
  5
1007F
330
1F
100
AcDbEntity
  8
0
100
AcDbCircle
 10
64.29375
 20
-76.20000000000002
 30
0.0
 40
1.775
  0
CIRCLE
  5
10080
330
1F
100
AcDbEntity
  8
0
100
AcDbCircle
 10
271.193714
 20
-45.3
 30
0.0
 40
1.325
  0
CIRCLE
  5
10081
330
1F
100
AcDbEntity
  8
0
100
AcDbCircle
 10
271.193714
 20
-45.3
 30
0.0
 40
1.775
  0
CIRCLE
  5
10082
330
1F
100
AcDbEntity
  8
0
100
AcDbCircle
 10
238.39375
 20
-45.3
 30
0.0
 40
1.325
  0
CIRCLE
  5
10083
330
1F
100
AcDbEntity
  8
0
100
AcDbCircle
 10
238.39375
 20
-45.3
 30
0.0
 40
1.775
  0
CIRCLE
  5
10084
330
1F
100
AcDbEntity
  8
0
100
AcDbCircle
 10
271.4625
 20
-19.05
 30
0.0
 40
1.325
  0
CIRCLE
  5
10085
330
1F
100
AcDbEntity
  8
0
100
AcDbCircle
 10
271.4625
 20
-19.05
 30
0.0
 40
1.775
  0
CIRCLE
  5
10086
330
1F
100
AcDbEntity
  8
0
100
AcDbCircle
 10
273.574964
 20
-7.20005
 30
0.0
 40
1.325
  0
CIRCLE
  5
10087
330
1F
100
AcDbEntity
  8
0
100
AcDbCircle
 10
273.574964
 20
-7.20005
 30
0.0
 40
1.775
  0
CIRCLE
  5
10088
330
1F
100
AcDbEntity
  8
0
100
AcDbCircle
 10
240.775
 20
-7.20005
 30
0.0
 40
1.325
  0
CIRCLE
  5
10089
330
1F
100
AcDbEntity
  8
0
100
AcDbCircle
 10
240.775
 20
-7.20005
 30
0.0
 40
1.775
  0
CIRCLE
  5
1008A
330
1F
100
AcDbEntity
  8
0
100
AcDbCircle
 10
257.1752159999999
 20
-57.150048
 30
0.0
 40
1.325
  0
CIRCLE
  5
1008B
330
1F
100
AcDbEntity
  8
0
100
AcDbCircle
 10
257.1752159999999
 20
-57.150048
 30
0.0
 40
1.775
  0
ENDSEC
  0
SECTION
  2
OBJECTS
  0
DICTIONARY
  5
C
330
0
100
AcDbDictionary
281
     1
  3
ACAD_COLOR
350
10046
  3
ACAD_DETAILVIEWSTYLE
350
10044
  3
ACAD_GROUP
350
D
  3
ACAD_LAYOUT
350
10018
  3
ACAD_MATERIAL
350
1001B
  3
ACAD_MLEADERSTYLE
350
1003A
  3
ACAD_MLINESTYLE
350
17
  3
ACAD_PLOTSETTINGS
350
10003
  3
ACAD_PLOTSTYLENAME
350
10004
  3
ACAD_SCALELIST
350
10006
  3
ACAD_SECTIONVIEWSTYLE
350
10045
  3
ACAD_TABLESTYLE
350
10038
  3
ACAD_VISUALSTYLE
350
1001F
  3
AcDbVariableDictionary
350
1003C
  3
ACDB_RECOMPOSE_DATA
350
1008E
  3
EZDXF_META
350
10050
  0
DICTIONARY
  5
10046
330
C
100
AcDbDictionary
281
     1
  0
DICTIONARY
  5
10044
102
{ACAD_REACTORS
330
C
102
}
330
C
100
AcDbDictionary
281
     1
  0
DICTIONARY
  5
D
330
C
100
AcDbDictionary
281
     1
  0
DICTIONARY
  5
10018
102
{ACAD_REACTORS
330
C
102
}
330
C
100
AcDbDictionary
281
     1
  3
Layout1
350
1001A
  3
Model
350
10019
  0
DICTIONARY
  5
1001B
102
{ACAD_REACTORS
330
C
102
}
330
C
100
AcDbDictionary
281
     1
  3
ByBlock
350
1001D
  3
ByLayer
350
1001C
  3
Global
350
1001E
  0
DICTIONARY
  5
1003A
102
{ACAD_REACTORS
330
C
102
}
330
C
100
AcDbDictionary
281
     1
  3
Standard
350
1003B
  0
DICTIONARY
  5
17
330
C
100
AcDbDictionary
281
     1
  3
Standard
350
10002
  0
DICTIONARY
  5
10003
102
{ACAD_REACTORS
330
C
102
}
330
C
100
AcDbDictionary
281
     1
  0
ACDBDICTIONARYWDFLT
  5
10004
102
{ACAD_REACTORS
330
C
102
}
330
C
100
AcDbDictionary
281
     1
  3
Normal
350
10005
100
AcDbDictionaryWithDefault
340
10005
  0
DICTIONARY
  5
10006
102
{ACAD_REACTORS
330
C
102
}
330
C
100
AcDbDictionary
281
     1
  3
A0
350
10007
  3
A1
350
10008
  3
A2
350
10009
  3
A3
350
1000A
  3
A4
350
1000B
  3
A5
350
1000C
  3
A6
350
1000D
  3
A7
350
1000E
  3
A8
350
1000F
  3
A9
350
10010
  3
B1
350
10011
  3
B2
350
10012
  3
B3
350
10013
  3
B4
350
10014
  3
B5
350
10015
  3
B6
350
10016
  3
B7
350
10017
  0
DICTIONARY
  5
10045
102
{ACAD_REACTORS
330
C
102
}
330
C
100
AcDbDictionary
281
     1
  0
DICTIONARY
  5
10038
102
{ACAD_REACTORS
330
C
102
}
330
C
100
AcDbDictionary
281
     1
  3
Standard
350
10039
  0
DICTIONARY
  5
1001F
102
{ACAD_REACTORS
330
C
102
}
330
C
100
AcDbDictionary
281
     1
  3
2dWireframe
350
10024
  3
Basic
350
10027
  3
Brighten
350
1002B
  3
ColorChange
350
1002F
  3
Conceptual
350
10029
  3
Dim
350
1002A
  3
EdgeColorOff
350
10032
  3
Facepattern
350
1002E
  3
Flat
350
10020
  3
FlatWithEdges
350
10021
  3
Gouraud
350
10022
  3
GouraudWithEdges
350
10023
  3
Hidden
350
10026
  3
JitterOff
350
10030
  3
Linepattern
350
1002D
  3
OverhangOff
350
10031
  3
Realistic
350
10028
  3
Shaded
350
10037
  3
Shaded with edges
350
10036
  3
Shades of Gray
350
10033
  3
Sketchy
350
10034
  3
Thicken
350
1002C
  3
Wireframe
350
10025
  3
X-Ray
350
10035
  0
DICTIONARY
  5
1003C
102
{ACAD_REACTORS
330
C
102
}
330
C
100
AcDbDictionary
281
     1
  3
CANNOSCALE
350
1003D
  3
CMLEADERSTYLE
350
10042
  3
CTABLESTYLE
350
10041
  3
MSLTSCALE
350
10043
  0
XRECORD
  5
1008E
102
{ACAD_REACTORS
330
C
102
}
330
C
100
AcDbXrecord
280
     1
 90
        1
330
10039
  0
DICTIONARY
  5
10050
330
C
100
AcDbDictionary
281
     1
  3
WRITTEN_BY_EZDXF
350
10051
  0
LAYOUT
  5
1001A
102
{ACAD_REACTORS
330
10018
102
}
330
10018
100
AcDbPlotSettings
  1

  2
none_device
  4

  6

 40
0.0
 41
0.0
 42
0.0
 43
0.0
 44
0.0
 45
0.0
 46
0.0
 47
0.0
 48
0.0
 49
0.0
140
0.0
141
0.0
142
1.0
143
1.0
 70
   688
 72
     0
 73
     0
 74
     5
  7

 75
    16
 76
     0
 77
     2
 78
   300
147
1.0
148
0.0
149
0.0
100
AcDbLayout
  1
Layout1
 70
     1
 71
     1
 10
0.0
 20
0.0
 11
12.0
 21
9.0
 12
0.0
 22
0.0
 32
0.0
 14
1.000000000000000E+20
 24
1.000000000000000E+20
 34
1.000000000000000E+20
 15
-1.000000000000000E+20
 25
-1.000000000000000E+20
 35
-1.000000000000000E+20
146
0.0
 13
0.0
 23
0.0
 33
0.0
 16
1.0
 26
0.0
 36
0.0
 17
0.0
 27
1.0
 37
0.0
 76
     0
330
1B
  0
LAYOUT
  5
10019
102
{ACAD_REACTORS
330
10018
102
}
330
10018
100
AcDbPlotSettings
  1

  2
none_device
  4
Letter_(8.50_x_11.00_Inches)
  6

 40
6.35
 41
6.35
 42
6.35000508
 43
6.35000508
 44
215.9
 45
279.4
 46
0.0
 47
0.0
 48
0.0
 49
0.0
140
0.0
141
0.0
142
1.0
143
2.219594649946486
 70
  1712
 72
     0
 73
     0
 74
     0
  7

 75
     0
 76
     0
 77
     2
 78
   300
147
0.4505327132700153
148
-39.40881537143161
149
0.0
100
AcDbLayout
  1
Model
 70
     1
 71
     0
 10
0.0
 20
0.0
 11
12.0
 21
9.0
 12
0.0
 22
0.0
 32
0.0
 14
1.000000000000000E+20
 24
1.000000000000000E+20
 34
1.000000000000000E+20
 15
-1.000000000000000E+20
 25
-1.000000000000000E+20
 35
-1.000000000000000E+20
146
0.0
 13
0.0
 23
0.0
 33
0.0
 16
1.0
 26
0.0
 36
0.0
 17
0.0
 27
1.0
 37
0.0
 76
     0
330
1F
331
10001
  0
MATERIAL
  5
1001D
102
{ACAD_REACTORS
330
1001B
102
}
330
1001B
100
AcDbMaterial
  1
ByBlock
 72
     1
273
     1
 94
      127
  0
MATERIAL
  5
1001C
102
{ACAD_REACTORS
330
1001B
102
}
330
1001B
100
AcDbMaterial
  1
ByLayer
 72
     1
273
     1
 94
      127
  0
MATERIAL
  5
1001E
102
{ACAD_REACTORS
330
1001B
102
}
330
1001B
100
AcDbMaterial
  1
Global
 72
     1
273
     1
 94
      127
  0
MLEADERSTYLE
  5
1003B
102
{ACAD_REACTORS
330
1003A
102
}
330
1003A
100
AcDbMLeaderStyle
179
     2
170
     2
171
     1
172
     0
 90
        2
 40
0.0
 41
0.0
173
     1
 91
-1056964608
340
14
 92
       -2
290
     1
 42
0.09
291
     1
 43
0.36
  3
Standard
341
0
 44
0.18
300

342
11
174
     1
178
     6
175
     1
176
     0
 93
-1056964608
 45
0.18
292
     0
297
     0
 46
0.18
343
0
 94
-1056964608
 47
1.0
 49
1.0
140
1.0
293
     1
141
0.0
294
     1
177
     0
142
1.0
295
     0
296
     0
143
0.125
271
     0
272
     9
273
     9
298
     0
  0
MLINESTYLE
  5
10002
102
{ACAD_REACTORS
330
17
102
}
330
17
100
AcDbMlineStyle
  2
Standard
 70
     0
  3

 62
   256
 51
90.0
 52
90.0
 71
     2
 49
0.5
 62
   256
  6
BYLAYER
 49
-0.5
 62
   256
  6
BYLAYER
  0
ACDBPLACEHOLDER
  5
10005
102
{ACAD_REACTORS
330
10004
102
}
330
10004
  0
SCALE
  5
10007
102
{ACAD_REACTORS
330
10006
102
}
330
10006
100
AcDbScale
 70
     0
300
1:1
140
1.0
141
1.0
290
     1
  0
SCALE
  5
10008
102
{ACAD_REACTORS
330
10006
102
}
330
10006
100
AcDbScale
 70
     0
300
1/128" = 1'-0"
140
0.0078125
141
12.0
290
     0
  0
SCALE
  5
10009
102
{ACAD_REACTORS
330
10006
102
}
330
10006
100
AcDbScale
 70
     0
300
1/64" = 1'-0"
140
0.015625
141
12.0
290
     0
  0
SCALE
  5
1000A
102
{ACAD_REACTORS
330
10006
102
}
330
10006
100
AcDbScale
 70
     0
300
1/32" = 1'-0"
140
0.03125
141
12.0
290
     0
  0
SCALE
  5
1000B
102
{ACAD_REACTORS
330
10006
102
}
330
10006
100
AcDbScale
 70
     0
300
1/16" = 1'-0"
140
0.0625
141
12.0
290
     0
  0
SCALE
  5
1000C
102
{ACAD_REACTORS
330
10006
102
}
330
10006
100
AcDbScale
 70
     0
300
3/32" = 1'-0"
140
0.09375
141
12.0
290
     0
  0
SCALE
  5
1000D
102
{ACAD_REACTORS
330
10006
102
}
330
10006
100
AcDbScale
 70
     0
300
1/8" = 1'-0"
140
0.125
141
12.0
290
     0
  0
SCALE
  5
1000E
102
{ACAD_REACTORS
330
10006
102
}
330
10006
100
AcDbScale
 70
     0
300
3/16" = 1'-0"
140
0.1875
141
12.0
290
     0
  0
SCALE
  5
1000F
102
{ACAD_REACTORS
330
10006
102
}
330
10006
100
AcDbScale
 70
     0
300
1/4" = 1'-0"
140
0.25
141
12.0
290
     0
  0
SCALE
  5
10010
102
{ACAD_REACTORS
330
10006
102
}
330
10006
100
AcDbScale
 70
     0
300
3/8" = 1'-0"
140
0.375
141
12.0
290
     0
  0
SCALE
  5
10011
102
{ACAD_REACTORS
330
10006
102
}
330
10006
100
AcDbScale
 70
     0
300
1/2" = 1'-0"
140
0.5
141
12.0
290
     0
  0
SCALE
  5
10012
102
{ACAD_REACTORS
330
10006
102
}
330
10006
100
AcDbScale
 70
     0
300
3/4" = 1'-0"
140
0.75
141
12.0
290
     0
  0
SCALE
  5
10013
102
{ACAD_REACTORS
330
10006
102
}
330
10006
100
AcDbScale
 70
     0
300
1" = 1'-0"
140
1.0
141
12.0
290
     0
  0
SCALE
  5
10014
102
{ACAD_REACTORS
330
10006
102
}
330
10006
100
AcDbScale
 70
     0
300
1-1/2" = 1'-0"
140
1.5
141
12.0
290
     0
  0
SCALE
  5
10015
102
{ACAD_REACTORS
330
10006
102
}
330
10006
100
AcDbScale
 70
     0
300
3" = 1'-0"
140
3.0
141
12.0
290
     0
  0
SCALE
  5
10016
102
{ACAD_REACTORS
330
10006
102
}
330
10006
100
AcDbScale
 70
     0
300
6" = 1'-0"
140
6.0
141
12.0
290
     0
  0
SCALE
  5
10017
102
{ACAD_REACTORS
330
10006
102
}
330
10006
100
AcDbScale
 70
     0
300
1'-0" = 1'-0"
140
12.0
141
12.0
290
     0
  0
TABLESTYLE
  5
10039
102
{ACAD_REACTORS
330
10038
102
}
102
{ACAD_XDICTIONARY
360
1008C
102
}
330
10038
100
AcDbTableStyle
  3
Standard
 70
     0
 71
     0
 40
0.06
 41
0.06
280
     0
281
     0
  7
STANDARD
140
0.18
170
     2
 62
     0
 63
   257
283
     0
 90
        4
 91
        0
  1

274
    -2
284
     1
 64
     0
275
    -2
285
     1
 65
     0
276
    -2
286
     1
 66
     0
277
    -2
287
     1
 67
     0
278
    -2
288
     1
 68
     0
279
    -2
289
     1
 69
     0
  7
STANDARD
140
0.25
170
     5
 62
     0
 63
   257
283
     0
 90
        4
 91
        0
  1

274
    -2
284
     1
 64
     0
275
    -2
285
     1
 65
     0
276
    -2
286
     1
 66
     0
277
    -2
287
     1
 67
     0
278
    -2
288
     1
 68
     0
279
    -2
289
     1
 69
     0
  7
STANDARD
140
0.18
170
     5
 62
     0
 63
   257
283
     0
 90
        4
 91
        0
  1

274
    -2
284
     1
 64
     0
275
    -2
285
     1
 65
     0
276
    -2
286
     1
 66
     0
277
    -2
287
     1
 67
     0
278
    -2
288
     1
 68
     0
279
    -2
289
     1
 69
     0
  0
VISUALSTYLE
  5
10024
102
{ACAD_REACTORS
330
1001F
102
}
330
1001F
100
AcDbVisualStyle
  2
2dWireframe
 70
     4
177
     3
291
     0
 70
    58
 90
        0
176
     1
 90
        2
176
     1
 90
        0
176
     1
 90
        0
176
     1
 40
0.6
176
     1
 40
30.0
176
     1
 62
     7
420
 16777215
176
     1
 90
        1
176
     1
 90
        4
176
     1
 62
     7
176
     1
 62
   257
176
     1
 90
        1
176
     1
 90
        1
176
     1
 40
1.0
176
     1
 90
        0
176
     1
 62
   257
176
     1
 40
1.0
176
     1
 90
        1
176
     1
 90
        6
176
     1
 90
        2
176
     1
 62
     7
176
     1
 90
        5
176
     1
 90
        0
176
     1
 90
        0
176
     1
290
     0
176
     1
 90
        1
176
     1
 40
0.0
176
     1
 90
        0
176
     1
290
     1
176
     1
290
     1
176
     1
290
     0
176
     1
290
     0
176
     1
290
     0
176
     1
290
     0
176
     1
290
     0
176
     1
290
     0
176
     1
290
     0
176
     1
 90
       50
176
     1
 40
0.0
176
     1
 40
1.0
176
     1
 90
        0
176
     1
 62
    18
420
        0
176
     1
 90
       50
176
     1
 90
        3
176
     1
 62
     5
420
      255
176
     1
290
     0
176
     1
 90
       50
176
     1
 90
       50
176
     1
 90
       50
176
     1
290
     0
176
     1
 90
       50
176
     1
 62
   256
176
     0
 40
1.0
176
     0
 90
        2
176
     1
  1
strokes_ogs.tif
176
     1
290
     0
176
     1
 40
1.0
176
     1
 40
1.0
176
     1
  0
VISUALSTYLE
  5
10027
102
{ACAD_REACTORS
330
1001F
102
}
330
1001F
100
AcDbVisualStyle
  2
Basic
 70
     7
177
     3
291
     1
 70
    58
 90
        1
176
     1
 90
        0
176
     1
 90
        1
176
     1
 90
        0
176
     1
 40
0.6
176
     1
 40
30.0
176
     1
 62
     7
420
 16777215
176
     1
 90
        0
176
     1
 90
        4
176
     1
 62
     7
176
     1
 62
   257
176
     1
 90
        1
176
     1
 90
        1
176
     1
 40
1.0
176
     1
 90
        8
176
     1
 62
     7
176
     1
 40
1.0
176
     1
 90
        1
176
     1
 90
        6
176
     1
 90
        2
176
     1
 62
     7
176
     1
 90
        5
176
     1
 90
        0
176
     1
 90
        0
176
     1
290
     0
176
     1
 90
        1
176
     1
 40
0.0
176
     1
 90
        0
176
     1
290
     0
176
     1
290
     1
176
     1
290
     1
176
     1
290
     0
176
     1
290
     0
176
     1
290
     0
176
     1
290
     0
176
     1
290
     0
176
     1
290
     0
176
     1
 90
       50
176
     1
 40
0.0
176
     1
 40
1.0
176
     1
 90
        0
176
     1
 62
    18
420
        0
176
     1
 90
       50
176
     1
 90
        3
176
     1
 62
     5
420
      255
176
     1
290
     0
176
     1
 90
       50
176
     1
 90
       50
176
     1
 90
       50
176
     1
290
     0
176
     1
 90
       50
176
     1
 62
   256
176
     0
 40
1.0
176
     0
 90
        2
176
     1
  1
strokes_ogs.tif
176
     1
290
     0
176
     1
 40
1.0
176
     1
 40
1.0
176
     1
  0
VISUALSTYLE
  5
1002B
102
{ACAD_REACTORS
330
1001F
102
}
330
1001F
100
AcDbVisualStyle
  2
Brighten
 70
    12
177
     3
291
     1
 70
    58
 90
        2
176
     1
 90
        2
176
     1
 90
        0
176
     1
 90
        0
176
     1
 40
0.6
176
     1
 40
30.0
176
     1
 62
     7
420
 16777215
176
     1
 90
        1
176
     1
 90
        4
176
     1
 62
     7
176
     1
 62
   257
176
     1
 90
        1
176
     1
 90
        1
176
     1
 40
1.0
176
     1
 90
        8
176
     1
 62
     7
176
     1
 40
1.0
176
     1
 90
        1
176
     1
 90
        6
176
     1
 90
        2
176
     1
 62
     7
176
     1
 90
        5
176
     1
 90
        0
176
     1
 90
        0
176
     1
290
     0
176
     1
 90
        1
176
     1
 40
50.0
176
     1
 90
        0
176
     1
290
     0
176
     1
290
     1
176
     1
290
     1
176
     1
290
     0
176
     1
290
     0
176
     1
290
     0
176
     1
290
     0
176
     1
290
     0
176
     1
290
     0
176
     1
 90
       50
176
     1
 40
0.0
176
     1
 40
1.0
176
     1
 90
        0
176
     1
 62
    18
420
        0
176
     1
 90
       50
176
     1
 90
        3
176
     1
 62
     5
420
      255
176
     1
290
     0
176
     1
 90
       50
176
     1
 90
       50
176
     1
 90
       50
176
     1
290
     0
176
     1
 90
       50
176
     1
 62
   256
176
     0
 40
1.0
176
     0
 90
        2
176
     1
  1
strokes_ogs.tif
176
     1
290
     0
176
     1
 40
1.0
176
     1
 40
1.0
176
     1
  0
VISUALSTYLE
  5
1002F
102
{ACAD_REACTORS
330
1001F
102
}
330
1001F
100
AcDbVisualStyle
  2
ColorChange
 70
    16
177
     3
291
     1
 70
    58
 90
        2
176
     1
 90
        2
176
     1
 90
        3
176
     1
 90
        0
176
     1
 40
0.6
176
     1
 40
30.0
176
     1
 62
     8
420
  8421504
176
     1
 90
        1
176
     1
 90
        4
176
     1
 62
     7
176
     1
 62
   257
176
     1
 90
        1
176
     1
 90
        1
176
     1
 40
1.0
176
     1
 90
        8
176
     1
 62
     8
420
  8421504
176
     1
 40
1.0
176
     1
 90
        1
176
     1
 90
        6
176
     1
 90
        2
176
     1
 62
     7
176
     1
 90
        5
176
     1
 90
        0
176
     1
 90
        0
176
     1
290
     0
176
     1
 90
        1
176
     1
 40
0.0
176
     1
 90
        0
176
     1
290
     0
176
     1
290
     1
176
     1
290
     1
176
     1
290
     0
176
     1
290
     0
176
     1
290
     0
176
     1
290
     0
176
     1
290
     0
176
     1
290
     0
176
     1
 90
       50
176
     1
 40
0.0
176
     1
 40
1.0
176
     1
 90
        0
176
     1
 62
    18
420
        0
176
     1
 90
       50
176
     1
 90
        3
176
     1
 62
     5
420
      255
176
     1
290
     0
176
     1
 90
       50
176
     1
 90
       50
176
     1
 90
       50
176
     1
290
     0
176
     1
 90
       50
176
     1
 62
   256
176
     0
 40
1.0
176
     0
 90
        2
176
     1
  1
strokes_ogs.tif
176
     1
290
     0
176
     1
 40
1.0
176
     1
 40
1.0
176
     1
  0
VISUALSTYLE
  5
10029
102
{ACAD_REACTORS
330
1001F
102
}
330
1001F
100
AcDbVisualStyle
  2
Conceptual
 70
     9
177
     3
291
     0
 70
    58
 90
        3
176
     1
 90
        2
176
     1
 90
        0
176
     1
 90
        0
176
     1
 40
0.6
176
     1
 40
30.0
176
     1
 62
     7
420
 16777215
176
     1
 90
        2
176
     1
 90
        2
176
     1
 62
     7
176
     1
 62
   257
176
     1
 90
        1
176
     1
 90
        1
176
     1
 40
179.0
176
     1
 90
        8
176
     1
 62
     7
176
     1
 40
1.0
176
     1
 90
        1
176
     1
 90
        6
176
     1
 90
        2
176
     1
 62
     7
176
     1
 90
        3
176
     1
 90
        0
176
     1
 90
        0
176
     1
290
     0
176
     1
 90
        1
176
     1
 40
0.0
176
     1
 90
        0
176
     1
290
     0
176
     1
290
     1
176
     1
290
     1
176
     1
290
     0
176
     1
290
     0
176
     1
290
     0
176
     1
290
     0
176
     1
290
     0
176
     1
290
     0
176
     1
 90
       50
176
     1
 40
0.0
176
     1
 40
1.0
176
     1
 90
        0
176
     1
 62
    18
420
        0
176
     1
 90
       50
176
     1
 90
        3
176
     1
 62
     5
420
      255
176
     1
290
     0
176
     1
 90
       50
176
     1
 90
       50
176
     1
 90
       50
176
     1
290
     0
176
     1
 90
       50
176
     1
 62
   256
176
     0
 40
1.0
176
     0
 90
        2
176
     1
  1
strokes_ogs.tif
176
     1
290
     0
176
     1
 40
1.0
176
     1
 40
1.0
176
     1
  0
VISUALSTYLE
  5
1002A
102
{ACAD_REACTORS
330
1001F
102
}
330
1001F
100
AcDbVisualStyle
  2
Dim
 70
    11
177
     3
291
     1
 70
    58
 90
        2
176
     1
 90
        2
176
     1
 90
        0
176
     1
 90
        0
176
     1
 40
0.6
176
     1
 40
30.0
176
     1
 62
     7
420
 16777215
176
     1
 90
        1
176
     1
 90
        4
176
     1
 62
     7
176
     1
 62
   257
176
     1
 90
        1
176
     1
 90
        1
176
     1
 40
1.0
176
     1
 90
        8
176
     1
 62
     7
176
     1
 40
1.0
176
     1
 90
        1
176
     1
 90
        6
176
     1
 90
        2
176
     1
 62
     7
176
     1
 90
        5
176
     1
 90
        0
176
     1
 90
        0
176
     1
290
     0
176
     1
 90
        1
176
     1
 40
-50.0
176
     1
 90
        0
176
     1
290
     0
176
     1
290
     1
176
     1
290
     1
176
     1
290
     0
176
     1
290
     0
176
     1
290
     0
176
     1
290
     0
176
     1
290
     0
176
     1
290
     0
176
     1
 90
       50
176
     1
 40
0.0
176
     1
 40
1.0
176
     1
 90
        0
176
     1
 62
    18
420
        0
176
     1
 90
       50
176
     1
 90
        3
176
     1
 62
     5
420
      255
176
     1
290
     0
176
     1
 90
       50
176
     1
 90
       50
176
     1
 90
       50
176
     1
290
     0
176
     1
 90
       50
176
     1
 62
   256
176
     0
 40
1.0
176
     0
 90
        2
176
     1
  1
strokes_ogs.tif
176
     1
290
     0
176
     1
 40
1.0
176
     1
 40
1.0
176
     1
  0
VISUALSTYLE
  5
10032
102
{ACAD_REACTORS
330
1001F
102
}
330
1001F
100
AcDbVisualStyle
  2
EdgeColorOff
 70
    22
177
     3
291
     1
 70
    58
 90
        2
176
     0
 90
        2
176
     0
 90
        0
176
     0
 90
        0
176
     0
 40
0.6
176
     0
 40
30.0
176
     0
 62
     7
420
 16777215
176
     0
 90
        1
176
     0
 90
        4
176
     0
 62
     7
176
     0
 62
   257
176
     0
 90
        1
176
     0
 90
        1
176
     0
 40
1.0
176
     0
 90
        8
176
     2
 62
     7
176
     0
 40
1.0
176
     0
 90
        1
176
     0
 90
        6
176
     0
 90
        2
176
     0
 62
     7
176
     0
 90
        5
176
     0
 90
        0
176
     0
 90
        0
176
     0
290
     0
176
     0
 90
        1
176
     0
 40
0.0
176
     0
 90
        0
176
     0
290
     0
176
     0
290
     1
176
     0
290
     1
176
     0
290
     0
176
     0
290
     0
176
     0
290
     0
176
     0
290
     0
176
     0
290
     0
176
     0
290
     0
176
     0
 90
       50
176
     0
 40
0.0
176
     0
 40
1.0
176
     0
 90
        0
176
     0
 62
    18
420
        0
176
     0
 90
       50
176
     0
 90
        3
176
     0
 62
     5
420
      255
176
     0
290
     0
176
     0
 90
       50
176
     0
 90
       50
176
     0
 90
       50
176
     0
290
     0
176
     0
 90
       50
176
     0
 62
   256
176
     0
 40
1.0
176
     0
 90
        2
176
     0
  1
strokes_ogs.tif
176
     0
290
     0
176
     0
 40
1.0
176
     0
 40
1.0
176
     0
  0
VISUALSTYLE
  5
1002E
102
{ACAD_REACTORS
330
1001F
102
}
330
1001F
100
AcDbVisualStyle
  2
Facepattern
 70
    15
177
     3
291
     1
 70
    58
 90
        2
176
     1
 90
        2
176
     1
 90
        0
176
     1
 90
        0
176
     1
 40
0.6
176
     1
 40
30.0
176
     1
 62
     7
420
 16777215
176
     1
 90
        1
176
     1
 90
        4
176
     1
 62
     7
176
     1
 62
   257
176
     1
 90
        1
176
     1
 90
        1
176
     1
 40
1.0
176
     1
 90
        8
176
     1
 62
     7
176
     1
 40
1.0
176
     1
 90
        1
176
     1
 90
        6
176
     1
 90
        2
176
     1
 62
     7
176
     1
 90
        5
176
     1
 90
        0
176
     1
 90
        0
176
     1
290
     0
176
     1
 90
        1
176
     1
 40
0.0
176
     1
 90
        0
176
     1
290
     0
176
     1
290
     1
176
     1
290
     1
176
     1
290
     0
176
     1
290
     0
176
     1
290
     0
176
     1
290
     0
176
     1
290
     0
176
     1
290
     0
176
     1
 90
       50
176
     1
 40
0.0
176
     1
 40
1.0
176
     1
 90
        0
176
     1
 62
    18
420
        0
176
     1
 90
       50
176
     1
 90
        3
176
     1
 62
     5
420
      255
176
     1
290
     0
176
     1
 90
       50
176
     1
 90
       50
176
     1
 90
       50
176
     1
290
     0
176
     1
 90
       50
176
     1
 62
   256
176
     0
 40
1.0
176
     0
 90
        2
176
     1
  1
strokes_ogs.tif
176
     1
290
     0
176
     1
 40
1.0
176
     1
 40
1.0
176
     1
  0
VISUALSTYLE
  5
10020
102
{ACAD_REACTORS
330
1001F
102
}
330
1001F
100
AcDbVisualStyle
  2
Flat
 70
     0
177
     3
291
     1
 70
    58
 90
        2
176
     1
 90
        1
176
     1
 90
        1
176
     1
 90
        2
176
     1
 40
0.6
176
     1
 40
30.0
176
     1
 62
     7
420
 16777215
176
     1
 90
        0
176
     1
 90
        0
176
     1
 62
     7
176
     1
 62
   257
176
     1
 90
        1
176
     1
 90
        1
176
     1
 40
1.0
176
     1
 90
        8
176
     1
 62
     7
176
     1
 40
1.0
176
     1
 90
        1
176
     1
 90
        6
176
     1
 90
        2
176
     1
 62
     7
176
     1
 90
        5
176
     1
 90
        0
176
     1
 90
        0
176
     1
290
     0
176
     1
 90
       13
176
     1
 40
0.0
176
     1
 90
        0
176
     1
290
     0
176
     1
290
     1
176
     1
290
     1
176
     1
290
     0
176
     1
290
     0
176
     1
290
     0
176
     1
290
     0
176
     1
290
     0
176
     1
290
     0
176
     1
 90
       50
176
     1
 40
0.0
176
     1
 40
1.0
176
     1
 90
        0
176
     1
 62
    18
420
        0
176
     1
 90
       50
176
     1
 90
        3
176
     1
 62
     5
420
      255
176
     1
290
     0
176
     1
 90
       50
176
     1
 90
       50
176
     1
 90
       50
176
     1
290
     0
176
     1
 90
       50
176
     1
 62
   256
176
     0
 40
1.0
176
     0
 90
        2
176
     1
  1
strokes_ogs.tif
176
     1
290
     0
176
     1
 40
1.0
176
     1
 40
1.0
176
     1
  0
VISUALSTYLE
  5
10021
102
{ACAD_REACTORS
330
1001F
102
}
330
1001F
100
AcDbVisualStyle
  2
FlatWithEdges
 70
     1
177
     3
291
     1
 70
    58
 90
        2
176
     1
 90
        1
176
     1
 90
        1
176
     1
 90
        2
176
     1
 40
0.6
176
     1
 40
30.0
176
     1
 62
     7
420
 16777215
176
     1
 90
        1
176
     1
 90
        0
176
     1
 62
     7
176
     1
 62
   257
176
     1
 90
        1
176
     1
 90
        1
176
     1
 40
1.0
176
     1
 90
        0
176
     1
 62
   257
176
     1
 40
1.0
176
     1
 90
        1
176
     1
 90
        6
176
     1
 90
        2
176
     1
 62
     7
176
     1
 90
        5
176
     1
 90
        0
176
     1
 90
        0
176
     1
290
     0
176
     1
 90
       13
176
     1
 40
0.0
176
     1
 90
        0
176
     1
290
     0
176
     1
290
     1
176
     1
290
     1
176
     1
290
     0
176
     1
290
     0
176
     1
290
     0
176
     1
290
     0
176
     1
290
     0
176
     1
290
     0
176
     1
 90
       50
176
     1
 40
0.0
176
     1
 40
1.0
176
     1
 90
        0
176
     1
 62
    18
420
        0
176
     1
 90
       50
176
     1
 90
        3
176
     1
 62
     5
420
      255
176
     1
290
     0
176
     1
 90
       50
176
     1
 90
       50
176
     1
 90
       50
176
     1
290
     0
176
     1
 90
       50
176
     1
 62
   256
176
     0
 40
1.0
176
     0
 90
        2
176
     1
  1
strokes_ogs.tif
176
     1
290
     0
176
     1
 40
1.0
176
     1
 40
1.0
176
     1
  0
VISUALSTYLE
  5
10022
102
{ACAD_REACTORS
330
1001F
102
}
330
1001F
100
AcDbVisualStyle
  2
Gouraud
 70
     2
177
     3
291
     1
 70
    58
 90
        2
176
     1
 90
        2
176
     1
 90
        1
176
     1
 90
        2
176
     1
 40
0.6
176
     1
 40
30.0
176
     1
 62
     7
420
 16777215
176
     1
 90
        0
176
     1
 90
        0
176
     1
 62
     7
176
     1
 62
   257
176
     1
 90
        1
176
     1
 90
        1
176
     1
 40
1.0
176
     1
 90
        0
176
     1
 62
     7
176
     1
 40
1.0
176
     1
 90
        1
176
     1
 90
        6
176
     1
 90
        2
176
     1
 62
     7
176
     1
 90
        5
176
     1
 90
        0
176
     1
 90
        0
176
     1
290
     0
176
     1
 90
       13
176
     1
 40
0.0
176
     1
 90
        0
176
     1
290
     0
176
     1
290
     1
176
     1
290
     1
176
     1
290
     0
176
     1
290
     0
176
     1
290
     0
176
     1
290
     0
176
     1
290
     0
176
     1
290
     0
176
     1
 90
       50
176
     1
 40
0.0
176
     1
 40
1.0
176
     1
 90
        0
176
     1
 62
    18
420
        0
176
     1
 90
       50
176
     1
 90
        3
176
     1
 62
     5
420
      255
176
     1
290
     0
176
     1
 90
       50
176
     1
 90
       50
176
     1
 90
       50
176
     1
290
     0
176
     1
 90
       50
176
     1
 62
   256
176
     0
 40
1.0
176
     0
 90
        2
176
     1
  1
strokes_ogs.tif
176
     1
290
     0
176
     1
 40
1.0
176
     1
 40
1.0
176
     1
  0
VISUALSTYLE
  5
10023
102
{ACAD_REACTORS
330
1001F
102
}
330
1001F
100
AcDbVisualStyle
  2
GouraudWithEdges
 70
     3
177
     3
291
     1
 70
    58
 90
        2
176
     1
 90
        2
176
     1
 90
        1
176
     1
 90
        2
176
     1
 40
0.6
176
     1
 40
30.0
176
     1
 62
     7
420
 16777215
176
     1
 90
        1
176
     1
 90
        0
176
     1
 62
     7
176
     1
 62
   257
176
     1
 90
        1
176
     1
 90
        1
176
     1
 40
1.0
176
     1
 90
        0
176
     1
 62
   257
176
     1
 40
1.0
176
     1
 90
        1
176
     1
 90
        6
176
     1
 90
        2
176
     1
 62
     7
176
     1
 90
        5
176
     1
 90
        0
176
     1
 90
        0
176
     1
290
     0
176
     1
 90
       13
176
     1
 40
0.0
176
     1
 90
        0
176
     1
290
     0
176
     1
290
     1
176
     1
290
     1
176
     1
290
     0
176
     1
290
     0
176
     1
290
     0
176
     1
290
     0
176
     1
290
     0
176
     1
290
     0
176
     1
 90
       50
176
     1
 40
0.0
176
     1
 40
1.0
176
     1
 90
        0
176
     1
 62
    18
420
        0
176
     1
 90
       50
176
     1
 90
        3
176
     1
 62
     5
420
      255
176
     1
290
     0
176
     1
 90
       50
176
     1
 90
       50
176
     1
 90
       50
176
     1
290
     0
176
     1
 90
       50
176
     1
 62
   256
176
     0
 40
1.0
176
     0
 90
        2
176
     1
  1
strokes_ogs.tif
176
     1
290
     0
176
     1
 40
1.0
176
     1
 40
1.0
176
     1
  0
VISUALSTYLE
  5
10026
102
{ACAD_REACTORS
330
1001F
102
}
330
1001F
100
AcDbVisualStyle
  2
Hidden
 70
     6
177
     3
291
     0
 70
    58
 90
        1
176
     1
 90
        2
176
     1
 90
        2
176
     1
 90
        0
176
     1
 40
0.6
176
     1
 40
30.0
176
     1
 62
     7
420
 16777215
176
     1
 90
        2
176
     1
 90
        2
176
     1
 62
     7
176
     1
 62
   257
176
     1
 90
        2
176
     1
 90
        1
176
     1
 40
40.0
176
     1
 90
        0
176
     1
 62
   257
176
     1
 40
1.0
176
     1
 90
        1
176
     1
 90
        6
176
     1
 90
        2
176
     1
 62
     7
176
     1
 90
        3
176
     1
 90
        0
176
     1
 90
        0
176
     1
290
     0
176
     1
 90
        1
176
     1
 40
0.0
176
     1
 90
        0
176
     1
290
     0
176
     1
290
     1
176
     1
290
     1
176
     1
290
     0
176
     1
290
     0
176
     1
290
     0
176
     1
290
     0
176
     1
290
     0
176
     1
290
     0
176
     1
 90
       50
176
     1
 40
0.0
176
     1
 40
1.0
176
     1
 90
        0
176
     1
 62
    18
420
        0
176
     1
 90
       50
176
     1
 90
        3
176
     1
 62
     5
420
      255
176
     1
290
     0
176
     1
 90
       50
176
     1
 90
       50
176
     1
 90
       50
176
     1
290
     0
176
     1
 90
       50
176
     1
 62
   256
176
     0
 40
1.0
176
     0
 90
        2
176
     1
  1
strokes_ogs.tif
176
     1
290
     0
176
     1
 40
1.0
176
     1
 40
1.0
176
     1
  0
VISUALSTYLE
  5
10030
102
{ACAD_REACTORS
330
1001F
102
}
330
1001F
100
AcDbVisualStyle
  2
JitterOff
 70
    20
177
     3
291
     1
 70
    58
 90
        2
176
     0
 90
        2
176
     0
 90
        0
176
     0
 90
        0
176
     0
 40
0.6
176
     0
 40
30.0
176
     0
 62
     7
420
 16777215
176
     0
 90
        1
176
     0
 90
        4
176
     0
 62
     7
176
     0
 62
   257
176
     0
 90
        1
176
     0
 90
        1
176
     0
 40
1.0
176
     0
 90
       10
176
     2
 62
     7
176
     0
 40
1.0
176
     0
 90
        1
176
     0
 90
        6
176
     0
 90
        2
176
     0
 62
     7
176
     0
 90
        5
176
     0
 90
        0
176
     0
 90
        0
176
     0
290
     0
176
     0
 90
        1
176
     0
 40
0.0
176
     0
 90
        0
176
     0
290
     0
176
     0
290
     1
176
     0
290
     1
176
     0
290
     0
176
     0
290
     0
176
     0
290
     0
176
     0
290
     0
176
     0
290
     0
176
     0
290
     0
176
     0
 90
       50
176
     0
 40
0.0
176
     0
 40
1.0
176
     0
 90
        0
176
     0
 62
    18
420
        0
176
     0
 90
       50
176
     0
 90
        3
176
     0
 62
     5
420
      255
176
     0
290
     0
176
     0
 90
       50
176
     0
 90
       50
176
     0
 90
       50
176
     0
290
     0
176
     0
 90
       50
176
     0
 62
   256
176
     0
 40
1.0
176
     0
 90
        2
176
     0
  1
strokes_ogs.tif
176
     0
290
     0
176
     0
 40
1.0
176
     0
 40
1.0
176
     0
  0
VISUALSTYLE
  5
1002D
102
{ACAD_REACTORS
330
1001F
102
}
330
1001F
100
AcDbVisualStyle
  2
Linepattern
 70
    14
177
     3
291
     1
 70
    58
 90
        2
176
     1
 90
        2
176
     1
 90
        0
176
     1
 90
        0
176
     1
 40
0.6
176
     1
 40
30.0
176
     1
 62
     7
420
 16777215
176
     1
 90
        1
176
     1
 90
        4
176
     1
 62
     7
176
     1
 62
   257
176
     1
 90
        7
176
     1
 90
        7
176
     1
 40
1.0
176
     1
 90
        8
176
     1
 62
     7
176
     1
 40
1.0
176
     1
 90
        1
176
     1
 90
        6
176
     1
 90
        2
176
     1
 62
     7
176
     1
 90
        5
176
     1
 90
        0
176
     1
 90
        0
176
     1
290
     0
176
     1
 90
        1
176
     1
 40
0.0
176
     1
 90
        0
176
     1
290
     0
176
     1
290
     1
176
     1
290
     1
176
     1
290
     0
176
     1
290
     0
176
     1
290
     0
176
     1
290
     0
176
     1
290
     0
176
     1
290
     0
176
     1
 90
       50
176
     1
 40
0.0
176
     1
 40
1.0
176
     1
 90
        0
176
     1
 62
    18
420
        0
176
     1
 90
       50
176
     1
 90
        3
176
     1
 62
     5
420
      255
176
     1
290
     0
176
     1
 90
       50
176
     1
 90
       50
176
     1
 90
       50
176
     1
290
     0
176
     1
 90
       50
176
     1
 62
   256
176
     0
 40
1.0
176
     0
 90
        2
176
     1
  1
strokes_ogs.tif
176
     1
290
     0
176
     1
 40
1.0
176
     1
 40
1.0
176
     1
  0
VISUALSTYLE
  5
10031
102
{ACAD_REACTORS
330
1001F
102
}
330
1001F
100
AcDbVisualStyle
  2
OverhangOff
 70
    21
177
     3
291
     1
 70
    58
 90
        2
176
     0
 90
        2
176
     0
 90
        0
176
     0
 90
        0
176
     0
 40
0.6
176
     0
 40
30.0
176
     0
 62
     7
420
 16777215
176
     0
 90
        1
176
     0
 90
        4
176
     0
 62
     7
176
     0
 62
   257
176
     0
 90
        1
176
     0
 90
        1
176
     0
 40
1.0
176
     0
 90
        9
176
     2
 62
     7
176
     0
 40
1.0
176
     0
 90
        1
176
     0
 90
        6
176
     0
 90
        2
176
     0
 62
     7
176
     0
 90
        5
176
     0
 90
        0
176
     0
 90
        0
176
     0
290
     0
176
     0
 90
        1
176
     0
 40
0.0
176
     0
 90
        0
176
     0
290
     0
176
     0
290
     1
176
     0
290
     1
176
     0
290
     0
176
     0
290
     0
176
     0
290
     0
176
     0
290
     0
176
     0
290
     0
176
     0
290
     0
176
     0
 90
       50
176
     0
 40
0.0
176
     0
 40
1.0
176
     0
 90
        0
176
     0
 62
    18
420
        0
176
     0
 90
       50
176
     0
 90
        3
176
     0
 62
     5
420
      255
176
     0
290
     0
176
     0
 90
       50
176
     0
 90
       50
176
     0
 90
       50
176
     0
290
     0
176
     0
 90
       50
176
     0
 62
   256
176
     0
 40
1.0
176
     0
 90
        2
176
     0
  1
strokes_ogs.tif
176
     0
290
     0
176
     0
 40
1.0
176
     0
 40
1.0
176
     0
  0
VISUALSTYLE
  5
10028
102
{ACAD_REACTORS
330
1001F
102
}
330
1001F
100
AcDbVisualStyle
  2
Realistic
 70
     8
177
     3
291
     0
 70
    58
 90
        2
176
     1
 90
        3
176
     1
 90
        0
176
     1
 90
        2
176
     1
 40
0.6
176
     1
 40
30.0
176
     1
 62
     7
420
 16777215
176
     1
 90
        0
176
     1
 90
        0
176
     1
 62
     7
176
     1
 62
   257
176
     1
 90
        1
176
     1
 90
        1
176
     1
 40
1.0
176
     1
 90
        8
176
     1
 62
   257
176
     1
 40
1.0
176
     1
 90
        1
176
     1
 90
        6
176
     1
 90
        2
176
     1
 62
     7
176
     1
 90
        3
176
     1
 90
        0
176
     1
 90
        0
176
     1
290
     0
176
     1
 90
       13
176
     1
 40
0.0
176
     1
 90
        0
176
     1
290
     0
176
     1
290
     1
176
     1
290
     1
176
     1
290
     0
176
     1
290
     0
176
     1
290
     0
176
     1
290
     0
176
     1
290
     0
176
     1
290
     0
176
     1
 90
       50
176
     1
 40
0.0
176
     1
 40
1.0
176
     1
 90
        0
176
     1
 62
    18
420
        0
176
     1
 90
       50
176
     1
 90
        3
176
     1
 62
     5
420
      255
176
     1
290
     0
176
     1
 90
       50
176
     1
 90
       50
176
     1
 90
       50
176
     1
290
     0
176
     1
 90
       50
176
     1
 62
   256
176
     0
 40
1.0
176
     0
 90
        2
176
     1
  1
strokes_ogs.tif
176
     1
290
     0
176
     1
 40
1.0
176
     1
 40
1.0
176
     1
  0
VISUALSTYLE
  5
10037
102
{ACAD_REACTORS
330
1001F
102
}
330
1001F
100
AcDbVisualStyle
  2
Shaded
 70
    27
177
     3
291
     0
 70
    58
 90
        2
176
     1
 90
        2
176
     1
 90
        1
176
     1
 90
        2
176
     1
 40
0.6
176
     1
 40
30.0
176
     1
 62
     7
420
 16777215
176
     1
 90
        0
176
     1
 90
        4
176
     1
 62
     7
176
     1
 62
   257
176
     1
 90
        1
176
     1
 90
        1
176
     1
 40
1.0
176
     1
 90
        8
176
     1
 62
   257
176
     1
 40
1.0
176
     1
 90
        1
176
     1
 90
        6
176
     1
 90
        2
176
     1
 62
     8
420
  7895160
176
     1
 90
        3
176
     1
 90
        0
176
     1
 90
        0
176
     1
290
     0
176
     1
 90
        5
176
     1
 40
0.0
176
     1
 90
        0
176
     1
290
     0
176
     1
290
     1
176
     1
290
     1
176
     1
290
     0
176
     1
290
     0
176
     1
290
     0
176
     1
290
     0
176
     1
290
     0
176
     1
290
     0
176
     1
 90
       50
176
     1
 40
0.0
176
     1
 40
1.0
176
     1
 90
        0
176
     1
 62
    18
420
        0
176
     1
 90
       50
176
     1
 90
        3
176
     1
 62
     5
420
      255
176
     1
290
     0
176
     1
 90
       50
176
     1
 90
       50
176
     1
 90
       50
176
     1
290
     0
176
     1
 90
       50
176
     1
 62
   256
176
     0
 40
1.0
176
     0
 90
        2
176
     1
  1
strokes_ogs.tif
176
     1
290
     0
176
     1
 40
1.0
176
     1
 40
1.0
176
     1
  0
VISUALSTYLE
  5
10036
102
{ACAD_REACTORS
330
1001F
102
}
330
1001F
100
AcDbVisualStyle
  2
Shaded with edges
 70
    26
177
     3
291
     0
 70
    58
 90
        2
176
     1
 90
        2
176
     1
 90
        1
176
     1
 90
        2
176
     1
 40
0.6
176
     1
 40
30.0
176
     1
 62
     7
420
 16777215
176
     1
 90
        1
176
     1
 90
       10
176
     1
 62
     7
176
     1
 62
   257
176
     1
 90
        2
176
     1
 90
        1
176
     1
 40
1.0
176
     1
 90
        8
176
     1
 62
   257
176
     1
 40
1.0
176
     1
 90
        1
176
     1
 90
        6
176
     1
 90
        2
176
     1
 62
     7
176
     1
 90
        3
176
     1
 90
        0
176
     1
 90
        0
176
     1
290
     0
176
     1
 90
        5
176
     1
 40
0.0
176
     1
 90
        0
176
     1
290
     0
176
     1
290
     1
176
     1
290
     1
176
     1
290
     0
176
     1
290
     0
176
     1
290
     0
176
     1
290
     0
176
     1
290
     0
176
     1
290
     0
176
     1
 90
       50
176
     1
 40
0.0
176
     1
 40
1.0
176
     1
 90
        0
176
     1
 62
    18
420
        0
176
     1
 90
       50
176
     1
 90
        3
176
     1
 62
     5
420
      255
176
     1
290
     0
176
     1
 90
       50
176
     1
 90
       50
176
     1
 90
       50
176
     1
290
     0
176
     1
 90
       50
176
     1
 62
   256
176
     0
 40
1.0
176
     0
 90
        2
176
     1
  1
strokes_ogs.tif
176
     1
290
     0
176
     1
 40
1.0
176
     1
 40
1.0
176
     1
  0
VISUALSTYLE
  5
10033
102
{ACAD_REACTORS
330
1001F
102
}
330
1001F
100
AcDbVisualStyle
  2
Shades of Gray
 70
    23
177
     3
291
     0
 70
    58
 90
        2
176
     1
 90
        2
176
     1
 90
        3
176
     1
 90
        0
176
     1
 40
0.6
176
     1
 40
30.0
176
     1
 62
     7
420
 16777215
176
     1
 90
        2
176
     1
 90
        2
176
     1
 62
     7
176
     1
 62
     7
176
     1
 90
        1
176
     1
 90
        1
176
     1
 40
40.0
176
     1
 90
        8
176
     1
 62
     7
176
     1
 40
1.0
176
     1
 90
        1
176
     1
 90
        6
176
     1
 90
        2
176
     1
 62
     7
176
     1
 90
        3
176
     1
 90
        0
176
     1
 90
        0
176
     1
290
     0
176
     1
 90
        1
176
     1
 40
0.0
176
     1
 90
        0
176
     1
290
     0
176
     1
290
     1
176
     1
290
     1
176
     1
290
     0
176
     1
290
     0
176
     1
290
     0
176
     1
290
     0
176
     1
290
     0
176
     1
290
     0
176
     1
 90
       50
176
     1
 40
0.0
176
     1
 40
1.0
176
     1
 90
        0
176
     1
 62
    18
420
        0
176
     1
 90
       50
176
     1
 90
        3
176
     1
 62
     5
420
      255
176
     1
290
     0
176
     1
 90
       50
176
     1
 90
       50
176
     1
 90
       50
176
     1
290
     0
176
     1
 90
       50
176
     1
 62
   256
176
     0
 40
1.0
176
     0
 90
        2
176
     1
  1
strokes_ogs.tif
176
     1
290
     0
176
     1
 40
1.0
176
     1
 40
1.0
176
     1
  0
VISUALSTYLE
  5
10034
102
{ACAD_REACTORS
330
1001F
102
}
330
1001F
100
AcDbVisualStyle
  2
Sketchy
 70
    24
177
     3
291
     0
 70
    58
 90
        1
176
     1
 90
        2
176
     1
 90
        2
176
     1
 90
        0
176
     1
 40
0.6
176
     1
 40
30.0
176
     1
 62
     7
420
 16777215
176
     1
 90
        2
176
     1
 90
        2
176
     1
 62
     7
176
     1
 62
     7
176
     1
 90
        1
176
     1
 90
        1
176
     1
 40
40.0
176
     1
 90
       11
176
     1
 62
     7
176
     1
 40
1.0
176
     1
 90
        1
176
     1
 90
        6
176
     1
 90
        2
176
     1
 62
     7
176
     1
 90
        6
176
     1
 90
        0
176
     1
 90
        0
176
     1
290
     0
176
     1
 90
        1
176
     1
 40
0.0
176
     1
 90
        0
176
     1
290
     0
176
     1
290
     1
176
     1
290
     1
176
     1
290
     0
176
     1
290
     0
176
     1
290
     0
176
     1
290
     0
176
     1
290
     0
176
     1
290
     0
176
     1
 90
       50
176
     1
 40
0.0
176
     1
 40
1.0
176
     1
 90
        0
176
     1
 62
    18
420
        0
176
     1
 90
       50
176
     1
 90
        3
176
     1
 62
     5
420
      255
176
     1
290
     0
176
     1
 90
       50
176
     1
 90
       50
176
     1
 90
       50
176
     1
290
     0
176
     1
 90
       50
176
     1
 62
   256
176
     0
 40
1.0
176
     0
 90
        2
176
     1
  1
strokes_ogs.tif
176
     1
290
     0
176
     1
 40
1.0
176
     1
 40
1.0
176
     1
  0
VISUALSTYLE
  5
1002C
102
{ACAD_REACTORS
330
1001F
102
}
330
1001F
100
AcDbVisualStyle
  2
Thicken
 70
    13
177
     3
291
     1
 70
    58
 90
        2
176
     1
 90
        2
176
     1
 90
        0
176
     1
 90
        0
176
     1
 40
0.6
176
     1
 40
30.0
176
     1
 62
     7
420
 16777215
176
     1
 90
        1
176
     1
 90
        4
176
     1
 62
     7
176
     1
 62
   257
176
     1
 90
        1
176
     1
 90
        1
176
     1
 40
1.0
176
     1
 90
       12
176
     1
 62
     7
176
     1
 40
1.0
176
     1
 90
        1
176
     1
 90
        6
176
     1
 90
        2
176
     1
 62
     7
176
     1
 90
        5
176
     1
 90
        0
176
     1
 90
        0
176
     1
290
     0
176
     1
 90
        1
176
     1
 40
0.0
176
     1
 90
        0
176
     1
290
     0
176
     1
290
     1
176
     1
290
     1
176
     1
290
     0
176
     1
290
     0
176
     1
290
     0
176
     1
290
     0
176
     1
290
     0
176
     1
290
     0
176
     1
 90
       50
176
     1
 40
0.0
176
     1
 40
1.0
176
     1
 90
        0
176
     1
 62
    18
420
        0
176
     1
 90
       50
176
     1
 90
        3
176
     1
 62
     5
420
      255
176
     1
290
     0
176
     1
 90
       50
176
     1
 90
       50
176
     1
 90
       50
176
     1
290
     0
176
     1
 90
       50
176
     1
 62
   256
176
     0
 40
1.0
176
     0
 90
        2
176
     1
  1
strokes_ogs.tif
176
     1
290
     0
176
     1
 40
1.0
176
     1
 40
1.0
176
     1
  0
VISUALSTYLE
  5
10025
102
{ACAD_REACTORS
330
1001F
102
}
330
1001F
100
AcDbVisualStyle
  2
Wireframe
 70
     5
177
     3
291
     0
 70
    58
 90
        0
176
     1
 90
        2
176
     1
 90
        0
176
     1
 90
        0
176
     1
 40
0.6
176
     1
 40
30.0
176
     1
 62
     7
420
 16777215
176
     1
 90
        1
176
     1
 90
        4
176
     1
 62
     7
176
     1
 62
   257
176
     1
 90
        1
176
     1
 90
        1
176
     1
 40
1.0
176
     1
 90
        0
176
     1
 62
   257
176
     1
 40
1.0
176
     1
 90
        1
176
     1
 90
        6
176
     1
 90
        2
176
     1
 62
     7
176
     1
 90
        3
176
     1
 90
        0
176
     1
 90
        0
176
     1
290
     0
176
     1
 90
        1
176
     1
 40
0.0
176
     1
 90
        0
176
     1
290
     0
176
     1
290
     1
176
     1
290
     1
176
     1
290
     0
176
     1
290
     0
176
     1
290
     0
176
     1
290
     0
176
     1
290
     0
176
     1
290
     0
176
     1
 90
       50
176
     1
 40
0.0
176
     1
 40
1.0
176
     1
 90
        0
176
     1
 62
    18
420
        0
176
     1
 90
       50
176
     1
 90
        3
176
     1
 62
     5
420
      255
176
     1
290
     0
176
     1
 90
       50
176
     1
 90
       50
176
     1
 90
       50
176
     1
290
     0
176
     1
 90
       50
176
     1
 62
   256
176
     0
 40
1.0
176
     0
 90
        2
176
     1
  1
strokes_ogs.tif
176
     1
290
     0
176
     1
 40
1.0
176
     1
 40
1.0
176
     1
  0
VISUALSTYLE
  5
10035
102
{ACAD_REACTORS
330
1001F
102
}
330
1001F
100
AcDbVisualStyle
  2
X-Ray
 70
    25
177
     3
291
     0
 70
    58
 90
        2
176
     1
 90
        2
176
     1
 90
        1
176
     1
 90
        1
176
     1
 40
0.5
176
     1
 40
30.0
176
     1
 62
     7
420
 16777215
176
     1
 90
        1
176
     1
 90
        0
176
     1
 62
     7
176
     1
 62
   257
176
     1
 90
        1
176
     1
 90
        1
176
     1
 40
1.0
176
     1
 90
        8
176
     1
 62
     7
176
     1
 40
1.0
176
     1
 90
        1
176
     1
 90
        6
176
     1
 90
        2
176
     1
 62
     7
176
     1
 90
        3
176
     1
 90
        0
176
     1
 90
        0
176
     1
290
     0
176
     1
 90
       13
176
     1
 40
0.0
176
     1
 90
        0
176
     1
290
     0
176
     1
290
     1
176
     1
290
     1
176
     1
290
     0
176
     1
290
     0
176
     1
290
     0
176
     1
290
     0
176
     1
290
     0
176
     1
290
     0
176
     1
 90
       50
176
     1
 40
0.0
176
     1
 40
1.0
176
     1
 90
        0
176
     1
 62
    18
420
        0
176
     1
 90
       50
176
     1
 90
        3
176
     1
 62
     5
420
      255
176
     1
290
     0
176
     1
 90
       50
176
     1
 90
       50
176
     1
 90
       50
176
     1
290
     0
176
     1
 90
       50
176
     1
 62
   256
176
     0
 40
1.0
176
     0
 90
        2
176
     1
  1
strokes_ogs.tif
176
     1
290
     0
176
     1
 40
1.0
176
     1
 40
1.0
176
     1
  0
DICTIONARYVAR
  5
1003D
102
{ACAD_REACTORS
330
1003C
102
}
330
1003C
100
DictionaryVariables
280
     0
  1
1:1
  0
DICTIONARYVAR
  5
10042
102
{ACAD_REACTORS
330
1003C
102
}
330
1003C
100
DictionaryVariables
280
     0
  1
Standard
  0
DICTIONARYVAR
  5
10041
102
{ACAD_REACTORS
330
1003C
102
}
330
1003C
100
DictionaryVariables
280
     0
  1
Standard
  0
DICTIONARYVAR
  5
10043
102
{ACAD_REACTORS
330
1003C
102
}
330
1003C
100
DictionaryVariables
280
     0
  1
0
  0
DICTIONARYVAR
  5
10051
330
10050
100
DictionaryVariables
280
     0
  1
1.3.4 @ 2024-12-04T21:28:24.167911+00:00
  0
DICTIONARY
  5
1008C
330
10039
100
AcDbDictionary
280
     1
281
     1
  3
ACAD_ROUNDTRIP_2008_TABLESTYLE_CELLSTYLEMAP
360
1008D
  0
CELLSTYLEMAP
  5
1008D
102
{ACAD_REACTORS
330
1008C
102
}
330
1008C
100
AcDbCellStyleMap
 90
        3
300
CELLSTYLE
  1
TABLEFORMAT_BEGIN
 90
        5
170
     1
 91
        0
 92
    32768
 62
   257
 93
        1
300
CONTENTFORMAT
  1
CONTENTFORMAT_BEGIN
 90
        0
 91
        0
 92
        4
 93
        0
300

 40
0.0
140
1.0
 94
        5
 62
     0
340
11
144
0.25
309
CONTENTFORMAT_END
171
     1
301
MARGIN
  1
CELLMARGIN_BEGIN
 40
0.06
 40
0.06
 40
0.06
 40
0.06
 40
0.06
 40
0.06
309
CELLMARGIN_END
 94
        6
 95
        1
302
GRIDFORMAT
  1
GRIDFORMAT_BEGIN
 90
        0
 91
        1
 62
     0
 92
       -2
340
14
 93
        0
 40
0.045
309
GRIDFORMAT_END
 95
        2
302
GRIDFORMAT
  1
GRIDFORMAT_BEGIN
 90
        0
 91
        1
 62
     0
 92
       -2
340
14
 93
        0
 40
0.045
309
GRIDFORMAT_END
 95
        4
302
GRIDFORMAT
  1
GRIDFORMAT_BEGIN
 90
        0
 91
        1
 62
     0
 92
       -2
340
14
 93
        0
 40
0.045
309
GRIDFORMAT_END
 95
        8
302
GRIDFORMAT
  1
GRIDFORMAT_BEGIN
 90
        0
 91
        1
 62
     0
 92
       -2
340
14
 93
        0
 40
0.045
309
GRIDFORMAT_END
 95
       16
302
GRIDFORMAT
  1
GRIDFORMAT_BEGIN
 90
        0
 91
        1
 62
     0
 92
       -2
340
14
 93
        0
 40
0.045
309
GRIDFORMAT_END
 95
       32
302
GRIDFORMAT
  1
GRIDFORMAT_BEGIN
 90
        0
 91
        1
 62
     0
 92
       -2
340
14
 93
        0
 40
0.045
309
GRIDFORMAT_END
309
TABLEFORMAT_END
  1
CELLSTYLE_BEGIN
 90
        1
 91
        1
300
_TITLE
309
CELLSTYLE_END
300
CELLSTYLE
  1
TABLEFORMAT_BEGIN
 90
        5
170
     1
 91
        0
 92
        0
 62
   257
 93
        1
300
CONTENTFORMAT
  1
CONTENTFORMAT_BEGIN
 90
        0
 91
        0
 92
        4
 93
        0
300

 40
0.0
140
1.0
 94
        5
 62
     0
340
11
144
0.18
309
CONTENTFORMAT_END
171
     1
301
MARGIN
  1
CELLMARGIN_BEGIN
 40
0.06
 40
0.06
 40
0.06
 40
0.06
 40
0.06
 40
0.06
309
CELLMARGIN_END
 94
        6
 95
        1
302
GRIDFORMAT
  1
GRIDFORMAT_BEGIN
 90
        0
 91
        1
 62
     0
 92
       -2
340
14
 93
        0
 40
0.045
309
GRIDFORMAT_END
 95
        2
302
GRIDFORMAT
  1
GRIDFORMAT_BEGIN
 90
        0
 91
        1
 62
     0
 92
       -2
340
14
 93
        0
 40
0.045
309
GRIDFORMAT_END
 95
        4
302
GRIDFORMAT
  1
GRIDFORMAT_BEGIN
 90
        0
 91
        1
 62
     0
 92
       -2
340
14
 93
        0
 40
0.045
309
GRIDFORMAT_END
 95
        8
302
GRIDFORMAT
  1
GRIDFORMAT_BEGIN
 90
        0
 91
        1
 62
     0
 92
       -2
340
14
 93
        0
 40
0.045
309
GRIDFORMAT_END
 95
       16
302
GRIDFORMAT
  1
GRIDFORMAT_BEGIN
 90
        0
 91
        1
 62
     0
 92
       -2
340
14
 93
        0
 40
0.045
309
GRIDFORMAT_END
 95
       32
302
GRIDFORMAT
  1
GRIDFORMAT_BEGIN
 90
        0
 91
        1
 62
     0
 92
       -2
340
14
 93
        0
 40
0.045
309
GRIDFORMAT_END
309
TABLEFORMAT_END
  1
CELLSTYLE_BEGIN
 90
        2
 91
        1
300
_HEADER
309
CELLSTYLE_END
300
CELLSTYLE
  1
TABLEFORMAT_BEGIN
 90
        5
170
     1
 91
        0
 92
        0
 62
   257
 93
        1
300
CONTENTFORMAT
  1
CONTENTFORMAT_BEGIN
 90
        0
 91
        0
 92
        4
 93
        0
300

 40
0.0
140
1.0
 94
        2
 62
     0
340
11
144
0.18
309
CONTENTFORMAT_END
171
     1
301
MARGIN
  1
CELLMARGIN_BEGIN
 40
0.06
 40
0.06
 40
0.06
 40
0.06
 40
0.06
 40
0.06
309
CELLMARGIN_END
 94
        6
 95
        1
302
GRIDFORMAT
  1
GRIDFORMAT_BEGIN
 90
        0
 91
        1
 62
     0
 92
       -2
340
14
 93
        0
 40
0.045
309
GRIDFORMAT_END
 95
        2
302
GRIDFORMAT
  1
GRIDFORMAT_BEGIN
 90
        0
 91
        1
 62
     0
 92
       -2
340
14
 93
        0
 40
0.045
309
GRIDFORMAT_END
 95
        4
302
GRIDFORMAT
  1
GRIDFORMAT_BEGIN
 90
        0
 91
        1
 62
     0
 92
       -2
340
14
 93
        0
 40
0.045
309
GRIDFORMAT_END
 95
        8
302
GRIDFORMAT
  1
GRIDFORMAT_BEGIN
 90
        0
 91
        1
 62
     0
 92
       -2
340
14
 93
        0
 40
0.045
309
GRIDFORMAT_END
 95
       16
302
GRIDFORMAT
  1
GRIDFORMAT_BEGIN
 90
        0
 91
        1
 62
     0
 92
       -2
340
14
 93
        0
 40
0.045
309
GRIDFORMAT_END
 95
       32
302
GRIDFORMAT
  1
GRIDFORMAT_BEGIN
 90
        0
 91
        1
 62
     0
 92
       -2
340
14
 93
        0
 40
0.045
309
GRIDFORMAT_END
309
TABLEFORMAT_END
  1
CELLSTYLE_BEGIN
 90
        3
 91
        2
300
_DATA
309
CELLSTYLE_END
  0
ENDSEC
  0
EOF
